<svg width="180" height="180" viewBox="0 0 180 180" fill="none" xmlns="http://www.w3.org/2000/svg">
<path d="M77.3831 13.4639C77.8716 13.3965 77.9761 14.0198 78.2759 14.3197C80.8499 17.5877 83.077 21.004 84.5021 24.9358C85.7554 27.9849 86.5977 31.1721 86.938 34.457C86.7594 34.9152 86.6853 35.3903 86.6247 35.8788C86.4697 36.182 86.2743 36.3909 86.0452 36.4987C85.5331 36.1012 85.6914 35.2117 85.5668 34.6187C84.7952 34.9321 84.1888 35.5486 83.4105 35.8215C83.3263 35.5587 83.242 35.2926 83.1578 35.0298C82.7872 34.8546 82.393 34.74 81.9921 34.6592C81.4699 35.1544 81.5305 36.6335 80.9813 36.8458C80.9106 36.3943 80.8398 35.9462 80.7657 35.4947C82.1639 28.871 81.6114 22.0114 78.2726 16.048C77.9053 15.3439 77.4505 14.6936 77.0698 13.9962L77.3831 13.4639Z" fill="#FB666A"/>
<path d="M101.351 13.8547C101.513 13.6391 101.752 13.6088 102.065 13.7604C102.224 14.5522 101.516 15.0609 101.159 15.6943C100.553 16.7219 99.9866 17.8371 99.6969 19.0028C98.858 20.7783 98.4133 22.7998 98.0224 24.7202C97.7394 26.7417 97.7698 28.8306 97.7664 30.8689C97.3823 30.7678 96.9578 30.5589 96.5569 30.596C96.4827 30.8689 96.4086 31.1418 96.3345 31.4147C95.9235 31.2799 96.1795 30.2759 95.4316 30.1614C94.7881 30.3669 94.6701 31.0104 94.222 31.3507C94.094 31.1822 93.9492 31.0441 93.7874 30.9397C93.181 31.5562 93.5853 32.3985 92.7329 32.9072C92.9452 29.8312 94.0435 26.9708 95.0778 24.0936C96.5501 20.3572 98.7064 16.8735 101.351 13.8547Z" fill="#97EEEE"/>
<path d="M95.4316 30.1614C96.1795 30.2759 95.9235 31.2799 96.3345 31.4147C96.4086 31.1418 96.4828 30.8689 96.5569 30.596C96.9578 30.5589 97.3823 30.7678 97.7664 30.8689C97.9989 32.5434 98.2381 34.2077 98.5346 35.8754C97.9551 35.5486 97.4598 35.1039 96.9005 34.7501C96.4693 34.5783 95.9134 35.0331 95.4889 35.1443C95.3137 34.8815 95.1385 34.6154 94.9633 34.3492C94.4512 34.356 94.1176 34.922 93.7403 35.2252C93.4842 35.0534 93.2248 34.8815 92.9654 34.7131C92.77 34.7198 92.5746 34.767 92.3792 34.8512C92.4364 34.1841 92.4802 33.5373 92.7329 32.9072C93.5853 32.3985 93.181 31.5562 93.7874 30.9396C93.9492 31.0441 94.094 31.1822 94.2221 31.3507C94.6702 31.0104 94.7881 30.3669 95.4316 30.1614Z" fill="#86EAE9"/>
<path d="M94.9633 34.3492C95.1385 34.6154 95.3137 34.8815 95.4889 35.1443C95.9134 35.0331 96.4693 34.5783 96.9005 34.7501C97.4598 35.1039 97.9551 35.5486 98.5346 35.8754C98.8277 36.529 99.0197 37.1995 99.2084 37.8902C97.9753 37.9542 96.6007 37.2602 95.6169 38.4663C94.7106 37.8733 94.4242 37.7251 93.3966 38.2439C93.2517 37.7824 93.0799 37.3646 92.7902 36.9704C92.7801 37.496 92.8441 38.0485 92.7464 38.5674C92.2006 39.8982 92.4735 41.2526 92.2107 42.7047C92.0658 41.0302 91.9142 39.312 92.0725 37.6375C92.3758 36.7716 92.1938 35.7609 92.3792 34.8512C92.5746 34.767 92.77 34.7198 92.9654 34.7131C93.2248 34.8815 93.4842 35.0534 93.7403 35.2252C94.1176 34.922 94.4512 34.356 94.9633 34.3492Z" fill="#77E7E4"/>
<path d="M81.9921 34.6592C82.393 34.74 82.7872 34.8546 83.1578 35.0298C83.242 35.2926 83.3263 35.5587 83.4105 35.8215C84.1888 35.5486 84.7952 34.9321 85.5667 34.6187C85.6914 35.2117 85.533 36.1012 86.0452 36.4987C86.2743 36.3909 86.4697 36.182 86.6247 35.8788C87.0829 39.0593 86.5707 42.5463 85.9542 45.6763C85.9441 46.8555 85.2197 47.6641 85.0546 48.8096C84.3943 49.5103 84.2123 50.3223 83.3498 50.767C82.3492 51.3263 81.5305 52.0844 80.6478 52.8054C80.3109 52.6976 79.974 52.6032 79.6337 52.5224C79.3743 52.7515 79.4282 52.9907 79.3911 53.2939C78.815 53.5836 78.2389 53.7285 77.7672 54.2002C77.7503 54.372 77.7267 54.5405 77.7065 54.7089C77.4875 54.8403 77.2517 54.9414 76.9957 55.0155C76.9283 54.7291 76.8643 54.4428 76.8036 54.1564C76.5745 54.436 76.3623 54.7325 76.1129 54.9953C75.6884 54.9886 75.3212 54.901 74.9371 55.1402C74.3037 55.4939 73.6602 55.2783 72.9998 55.1503C73.0672 55.814 72.9224 56.5013 72.2182 56.7372C72.2586 56.3396 72.3193 55.9387 72.3361 55.5411C72.235 55.3558 72.1306 55.1739 72.0262 54.9953C72.0868 54.4933 72.262 54.0081 72.3462 53.5061C72.4069 52.6672 73.4378 52.1585 73.9836 51.6194C74.0679 50.2347 75.4054 49.4059 75.7962 48.0953C75.6312 47.937 75.4661 47.7786 75.2942 47.6203C77.6425 43.9075 79.7112 39.7769 80.7657 35.4947C80.8398 35.9462 80.9106 36.3943 80.9813 36.8458C81.5305 36.6335 81.4699 35.1544 81.9921 34.6592Z" fill="#FB5164"/>
<path d="M86.938 34.457C87.5512 40.0397 86.9515 45.6123 85.5128 51.0265C85.3208 51.7407 85.0614 52.4348 84.8255 53.1389C84.1888 53.2231 84.1214 53.9239 83.9058 54.4057C83.5756 55.2345 83.5116 56.0364 82.7569 56.6091C82.3661 56.8989 82.3256 57.2897 82.1706 57.7176C81.9618 57.4649 81.7798 57.1987 81.5507 56.9629C81.0723 56.8719 80.5434 56.9764 80.0616 56.9258C79.6708 56.6361 79.1755 55.9555 78.6667 55.9488C78.0401 56.1981 77.4437 56.5182 76.7969 56.7169C77.6021 55.7399 78.4713 54.7426 79.5259 54.025C79.9841 53.678 80.2839 53.2434 80.6478 52.8054C81.5305 52.0844 82.3492 51.3263 83.3498 50.767C84.2123 50.3223 84.3943 49.5103 85.0546 48.8096C85.2197 47.6641 85.9441 46.8555 85.9542 45.6763C86.5707 42.5463 87.0829 39.0593 86.6247 35.8788C86.6853 35.3903 86.7594 34.9152 86.938 34.457Z" fill="#D1446A"/>
<path d="M92.7902 36.9704C93.0799 37.3646 93.2517 37.7824 93.3966 38.2439C93.5752 39.2547 93.6392 40.2014 94.313 41.0336C94.3872 42.2734 95.1958 42.9574 95.7719 43.9917C95.8527 44.3219 95.9336 44.6554 96.0144 44.9856C95.8999 45.1675 95.7786 45.3494 95.6539 45.5246C95.3743 45.245 95.2362 45.1641 94.8386 45.1372C94.7746 44.9081 94.7106 44.6756 94.6466 44.4431H94.5219C94.4579 44.6824 94.3939 44.9216 94.3265 45.1608C94.158 45.1743 93.9896 45.1877 93.8211 45.2012C93.3562 45.7369 93.4472 46.6162 93.3393 47.2867C93.0328 47.3204 93.2012 46.2726 93.0934 46.0435C92.9115 45.7773 92.7127 45.5179 92.5038 45.2753C92.2612 44.4297 92.2511 43.5739 92.2107 42.7047C92.4735 41.2526 92.2006 39.8982 92.7464 38.5674C92.8441 38.0485 92.7801 37.496 92.7902 36.9704Z" fill="#44D6E9"/>
<path d="M99.2084 37.8902C99.7205 38.9852 100.105 40.1542 100.495 41.2998C99.889 41.2088 99.7576 40.818 99.4106 40.3901C98.6458 41.2155 97.7462 40.6798 96.7422 40.8887C95.7348 41.1751 95.2429 40.3227 94.313 41.0336C93.6392 40.2014 93.5752 39.2547 93.3966 38.2439C94.4242 37.7251 94.7106 37.8733 95.6169 38.4663C96.6007 37.2601 97.9753 37.9542 99.2084 37.8902Z" fill="#68E3E1"/>
<path d="M99.4105 40.3901C99.7576 40.818 99.889 41.2088 100.495 41.2997C101.075 42.4116 101.604 43.5537 102.163 44.6756C101.604 44.5577 101.469 44.4667 101.152 44.0052C100.839 43.4796 100.32 43.6548 99.8115 43.6683C99.2421 43.7525 98.7333 43.6885 98.3088 44.1366C97.3958 44.086 96.7085 43.6042 95.7719 43.9917C95.1958 42.9574 94.3872 42.2734 94.313 41.0336C95.2429 40.3227 95.7348 41.1751 96.7422 40.8887C97.7462 40.6798 98.6458 41.2155 99.4105 40.3901Z" fill="#59DDDC"/>
<path d="M98.3088 44.1365C98.7333 43.6884 99.2421 43.7525 99.8115 43.6682C100.32 43.6548 100.839 43.4796 101.152 44.0052C101.469 44.4667 101.604 44.5577 102.163 44.6756C102.847 45.7942 103.487 46.9329 104.188 48.0414C103.484 47.7617 103.066 47.4551 102.274 47.5697C101.974 47.3305 101.705 47.0576 101.405 46.815C100.893 46.8925 100.371 47.381 99.8115 47.3507C99.1444 47.3642 98.639 47.3743 98.0663 47.7516C97.3217 46.8689 96.6647 45.939 96.0144 44.9856C95.9336 44.6554 95.8527 44.3218 95.7719 43.9917C96.7085 43.6042 97.3958 44.086 98.3088 44.1365Z" fill="#4AD6D7"/>
<path d="M94.5219 44.4432H94.6466C94.7106 44.6756 94.7746 44.9081 94.8386 45.1372C95.2362 45.1642 95.3743 45.245 95.654 45.5247C95.7786 45.3495 95.8999 45.1675 96.0145 44.9856C96.6647 45.9391 97.3217 46.869 98.0663 47.7517C98.9321 48.7725 99.7913 49.8473 100.799 50.7098C100.556 50.8951 100.307 51.0703 100.047 51.2354C99.7508 51.2354 99.5116 50.9052 99.2084 50.8547C98.7974 50.9422 98.6053 51.3196 98.3122 51.5925C98.0562 51.4645 97.8136 51.3095 97.5609 51.1747C97.3453 51.7845 96.9982 52.9334 96.2705 53.0783C96.2874 52.6571 96.4289 52.209 95.8426 52.1653C95.189 52.893 94.8892 53.459 94.778 54.4226L94.5961 54.5607C93.5415 51.5453 92.8711 48.4457 92.5038 45.2754C92.7127 45.5179 92.9115 45.7774 93.0934 46.0435C93.2012 46.2726 93.0328 47.3204 93.3394 47.2867C93.4472 46.6163 93.3562 45.7369 93.8211 45.2012C93.9896 45.1878 94.1581 45.1743 94.3265 45.1608C94.3939 44.9216 94.4579 44.6824 94.5219 44.4432Z" fill="#28C5E0"/>
<path d="M101.405 46.815C101.705 47.0576 101.974 47.3305 102.274 47.5697C103.066 47.4551 103.484 47.7617 104.188 48.0414C104.828 48.9039 105.421 49.7967 106.007 50.6996C105 50.9422 104.838 51.8653 103.625 51.5587C103.551 51.3398 103.48 51.1174 103.41 50.8984C102.53 50.8276 101.675 50.9152 100.799 50.7097C99.7912 49.8472 98.9321 48.7725 98.0663 47.7516C98.639 47.3743 99.1444 47.3642 99.8115 47.3507C100.371 47.381 100.893 46.8925 101.405 46.815Z" fill="#3BCCD1"/>
<path d="M75.2942 47.6203C75.466 47.7786 75.6311 47.937 75.7962 48.0953C75.4054 49.4059 74.0679 50.2347 73.9836 51.6194C73.4378 52.1585 72.4069 52.6672 72.3462 53.5062C72.262 54.0082 72.0868 54.4933 72.0262 54.9953C72.1306 55.1739 72.235 55.3558 72.3361 55.5411C72.3193 55.9387 72.2586 56.3396 72.2182 56.7372C72.9223 56.5013 73.0672 55.814 72.9998 55.1503C73.6602 55.2783 74.3037 55.494 74.9371 55.1402C75.3212 54.901 75.6884 54.9886 76.1129 54.9953C76.3622 54.7325 76.5745 54.4361 76.8036 54.1564C76.8642 54.4428 76.9283 54.7292 76.9956 55.0155C77.2517 54.9414 77.4875 54.8403 77.7065 54.7089C77.7267 54.5405 77.7503 54.372 77.7672 54.2002C78.2388 53.7285 78.815 53.5836 79.3911 53.2939C79.4282 52.9907 79.3743 52.7515 79.6337 52.5224C79.974 52.6032 80.3109 52.6976 80.6478 52.8054C80.2839 53.2434 79.9841 53.678 79.5259 54.025C78.4713 54.7426 77.6021 55.7399 76.7969 56.717C75.4357 57.7378 73.9836 58.9204 72.8314 60.1636C71.5275 61.1878 70.1361 62.175 68.9232 63.307C67.6362 64.4626 65.5574 65.2982 64.7353 66.8648C64.4254 67.1849 64.112 67.4948 63.8122 67.825C62.3837 69.2333 60.9215 70.6315 59.6075 72.151C58.617 73.5424 57.458 74.8665 56.6393 76.3523C55.5881 78.0941 54.6717 79.8427 54.0855 81.8002C53.5902 82.7031 54.0147 83.6734 53.3139 84.418C53.442 83.6937 53.6677 83.0569 53.4521 82.3157C54.7223 76.9217 57.2693 72.3565 60.1702 67.697C61.8311 65.2072 63.7246 62.8926 65.4294 60.4432C67.0466 58.4756 68.6031 56.4542 70.1933 54.463C70.5572 54.0351 70.9548 53.6578 71.194 53.1389C72.7943 51.5386 73.9803 49.4598 75.2942 47.6203Z" fill="#F14062"/>
<path d="M99.2084 50.8546C99.5116 50.9052 99.7508 51.2353 100.047 51.2353C100.307 51.0702 100.556 50.8951 100.799 50.7097C101.799 51.9664 103.261 52.9031 104.454 53.9913C104.387 54.2271 104.346 54.4697 104.34 54.7224C104.104 54.6887 103.871 54.655 103.639 54.6213C102.901 55.7432 101.803 56.4844 101.034 57.5895C100.809 57.6064 100.596 57.6502 100.398 57.7209C100.287 58.7485 99.2758 59.1427 99.0433 60.204C98.2347 59.4493 97.4565 58.6845 96.8028 57.7883C96.5805 57.4716 96.3076 57.2358 95.9808 57.0808C95.6742 56.1745 95.0037 55.3457 94.778 54.4225C94.8892 53.459 95.189 52.893 95.8426 52.1652C96.4289 52.209 96.2874 52.6571 96.2705 53.0783C96.9982 52.9334 97.3453 51.7845 97.5609 51.1747C97.8136 51.3095 98.0562 51.4644 98.3122 51.5925C98.6053 51.3196 98.7974 50.9422 99.2084 50.8546Z" fill="#19B2D2"/>
<path d="M100.799 50.7098C101.675 50.9153 102.53 50.8277 103.41 50.8984C103.48 51.1174 103.551 51.3398 103.625 51.5588C104.838 51.8654 105 50.9422 106.007 50.6996C106.631 51.4442 107.23 52.0978 108.153 52.4718C108.046 52.6706 107.948 52.8727 107.854 53.0783C108.608 54.1294 109.498 55.0863 110.239 56.1543C109.7 56.5114 109.619 56.3126 109.124 56.0397C108.295 56.0768 107.449 55.969 106.685 55.6321C105.893 55.1705 105.189 54.5371 104.454 53.9913C103.261 52.9031 101.799 51.9664 100.799 50.7098Z" fill="#30C0CD"/>
<path d="M108.153 52.4718C108.955 52.8593 109.616 53.5095 110.37 53.9913C114.592 56.8449 119.002 59.6952 122.782 63.125C122.422 63.0745 122.055 63.0307 121.691 62.9936C121.809 63.3541 122.105 63.5226 122.294 63.8258C122.125 63.9943 121.937 64.1155 121.728 64.193C120.909 63.5799 120.003 63.6203 119.555 62.6533C119.194 63.0105 118.904 63.3474 118.382 63.4586C118.466 63.0475 118.557 62.6399 118.631 62.2288C118.284 62.3097 118.103 62.7679 117.87 63.0206C117.627 63.0004 117.385 62.9734 117.142 62.9397C117.179 63.1385 117.22 63.3373 117.257 63.5361C117.051 63.9235 116.654 64.1829 116.469 64.6142C116.209 64.2402 115.923 63.8932 115.643 63.5327C114.012 60.9654 112.112 58.5464 110.239 56.1543C109.498 55.0863 108.608 54.1294 107.854 53.0782C107.948 52.8727 108.046 52.6706 108.153 52.4718Z" fill="#8CEEEB"/>
<path d="M71.194 53.1389C70.9548 53.6578 70.5572 54.0351 70.1934 54.463C68.6031 56.4541 67.0466 58.4756 65.4294 60.4432C64.988 60.6049 64.6848 60.7532 64.422 61.1575C63.3405 62.6534 62.1344 64.0415 61.1169 65.5879C60.6924 66.3022 60.0489 66.8041 60.1702 67.697C57.2693 72.3565 54.7223 76.9217 53.4521 82.3157C52.9299 84.5562 52.4245 86.7899 52.1247 89.0708C51.4778 91.5437 51.2723 94.047 50.8107 96.5503C50.1335 101.981 50.1908 107.621 51.37 112.978L51.2318 113.74C51.9731 116.61 53.0579 119.403 54.5033 121.994C54.8436 122.57 55.0929 123.126 55.6825 123.49L55.6993 124.275C54.4696 123.359 53.5094 122.068 52.3504 121.041C52.1146 120.744 51.8821 120.448 51.6429 120.158C47.7145 115.259 44.7025 109.751 43.1796 103.636C42.6439 101.496 42.3003 99.3265 42.0105 97.1433C41.8319 94.2357 41.8185 91.3382 41.997 88.4307C42.6776 84.3574 43.4727 80.3616 45.0933 76.5376C45.4403 75.6246 45.9254 74.9103 46.0029 73.9636C46.7138 72.4508 47.7515 71.3828 48.8162 70.143C53.6172 64.7187 59.2672 60.5645 65.362 56.7136C67.2555 55.4535 69.3949 54.527 71.194 53.1389Z" fill="#0C3A72"/>
<path d="M84.8255 53.1389C83.9832 56.0263 82.7602 58.826 81.4766 61.5449C81.1565 60.9924 80.3816 61.7336 79.9369 61.8145C78.5657 61.1709 77.4808 60.2242 75.995 60.0288C75.5503 59.9412 75.2201 59.4392 74.8697 59.1697C74.297 59.4493 73.7478 59.8267 73.2155 60.1838L72.8314 60.1636C73.9836 58.9204 75.4357 57.7378 76.7969 56.7169C77.4438 56.5182 78.0401 56.1981 78.6667 55.9488C79.1755 55.9555 79.6708 56.6361 80.0616 56.9258C80.5434 56.9764 81.0723 56.8719 81.5507 56.9629C81.7798 57.1987 81.9618 57.4649 82.1706 57.7176C82.3256 57.2897 82.3661 56.8989 82.7569 56.6091C83.5116 56.0364 83.5756 55.2345 83.9058 54.4057C84.1214 53.9239 84.1888 53.2231 84.8255 53.1389Z" fill="#B1436B"/>
<path d="M104.454 53.9913C105.189 54.5371 105.893 55.1705 106.685 55.6321C107.449 55.969 108.295 56.0768 109.124 56.0398C109.619 56.3127 109.7 56.5115 110.239 56.1543C112.112 58.5464 114.012 60.9655 115.643 63.5327C115.074 63.3912 114.754 63.1925 114.339 62.7781C114.07 61.8246 112.887 61.2485 112.207 60.5679C111.368 59.9177 110.653 58.9002 109.676 58.4858C109.7 58.6879 109.72 58.8867 109.74 59.0855C109.508 59.0518 109.275 59.0215 109.043 58.9945C108.595 59.3988 108.103 59.7762 107.695 60.2175C107.736 60.4938 107.783 60.77 107.833 61.0463C107.459 60.9756 107.092 60.888 106.715 60.8509C106.836 61.7505 106.28 62.1009 105.943 62.8421C105.99 63.0543 106.038 63.27 106.085 63.4822C105.819 63.435 105.552 63.398 105.283 63.3677C104.885 63.5867 104.528 63.8966 104.114 64.0785C103.602 63.9775 103.578 63.4788 103.019 63.8865C101.533 62.9027 100.26 61.4978 99.0433 60.204C99.2758 59.1427 100.287 58.7486 100.398 57.721C100.596 57.6502 100.809 57.6064 101.034 57.5896C101.803 56.4845 102.901 55.7433 103.639 54.6214C103.871 54.6551 104.104 54.6887 104.34 54.7224C104.346 54.4698 104.387 54.2272 104.454 53.9913Z" fill="#11A1C5"/>
<path d="M94.5961 54.5607L94.778 54.4225C95.0037 55.3457 95.6742 56.1745 95.9808 57.0808C97.6418 61.0025 100.165 63.9909 102.79 67.2758C104.198 69.2131 105.798 71.0156 107.331 72.8551C109.259 75.2034 111.152 77.5921 112.904 80.0785C113.406 80.8568 113.985 81.6519 114.295 82.5144C115.067 83.4308 115.616 84.4584 116.196 85.4961C116.799 87.1032 117.695 88.5351 118.412 90.0916C117.995 89.8726 117.557 89.7278 117.112 89.5728C116.708 89.155 116.63 88.8383 115.97 88.8248C114.494 87.9623 113.254 86.9381 111.55 86.5237C109.878 85.9543 108.201 86.1464 106.54 86.645C106.331 86.6315 106.118 86.6248 105.906 86.6282C105.381 83.2523 104.606 79.9438 103.433 76.7296C100.822 69.1861 97.1263 62.1042 94.5961 54.5607Z" fill="#E3396B"/>
<path d="M95.9808 57.0808C96.3076 57.2358 96.5805 57.4716 96.8028 57.7883C97.4565 58.6845 98.2347 59.4493 99.0433 60.204C100.26 61.4978 101.533 62.9027 103.019 63.8865C104.373 65.1061 105.896 66.2381 107.429 67.2287C109.43 69.0648 111.593 70.6921 113.51 72.626C115.087 74.6206 116.711 76.4769 118.042 78.6703C118.662 79.654 119.12 80.7153 119.713 81.7126C120.276 83.6465 121.088 85.4928 121.701 87.4098C121.889 89.62 122.516 91.5673 122.257 93.828C122.088 95.1622 122.041 96.4896 122.115 97.8339C122.479 97.5341 122.509 96.7356 122.779 96.3077C123.257 96.3515 123.463 97.3016 123.207 97.6823C122.688 98.747 122.947 100.327 123.884 101.072C123.116 103.602 122.162 106.122 120.858 108.43C120.613 108.282 120.363 108.181 120.111 108.133C119.757 108.423 119.45 108.75 119.049 108.979C119.026 108.218 119.662 107.672 119.966 106.954C120.515 106.038 120.764 105.027 121.175 104.05C121.243 103.504 121.886 103.447 122.048 102.979C120.545 101.719 121.596 100.421 120.842 98.8346C120.791 97.5813 120.939 96.4492 120.629 95.2228C120.37 94.175 120.107 93.1138 119.787 92.0828C119.076 90.1321 117.941 88.2791 117.065 86.362C116.839 85.8903 116.708 85.6848 116.196 85.4961C115.616 84.4584 115.067 83.4309 114.295 82.5144C113.985 81.6519 113.406 80.8568 112.904 80.0786C111.152 77.5921 109.259 75.2034 107.331 72.8551C105.798 71.0156 104.198 69.2131 102.79 67.2758C100.165 63.9909 97.6418 61.0025 95.9808 57.0808Z" fill="#0B3872"/>
<path d="M109.676 58.4857C110.653 58.9002 111.368 59.9176 112.207 60.5679C112.887 61.2485 114.07 61.8246 114.339 62.778C113.79 62.9499 113.241 63.1183 112.702 63.3205C112.668 63.6877 112.88 64.0448 112.867 64.4188C112.621 64.4896 112.375 64.5637 112.132 64.6445C112.105 65.2544 111.62 65.4801 111.368 66.0023C110.93 66.7166 110.488 67.7677 109.548 67.8857C108.814 68.0945 108.012 66.7199 107.429 67.2287C105.896 66.2381 104.373 65.1061 103.019 63.8865C103.578 63.4788 103.602 63.9774 104.114 64.0785C104.528 63.8966 104.885 63.5866 105.283 63.3676C105.552 63.398 105.819 63.435 106.085 63.4822C106.038 63.2699 105.99 63.0543 105.943 62.8421C106.28 62.1008 106.836 61.7505 106.715 60.8509C107.092 60.888 107.459 60.9755 107.833 61.0463C107.783 60.77 107.736 60.4938 107.695 60.2175C108.103 59.7761 108.595 59.3988 109.043 58.9945C109.275 59.0214 109.508 59.0518 109.74 59.0855C109.72 58.8867 109.7 58.6879 109.676 58.4857Z" fill="#0C91B6"/>
<path d="M74.8697 59.1696C75.2201 59.4392 75.5503 59.9412 75.995 60.0288C77.4808 60.2242 78.5657 61.1709 79.9369 61.8144C80.3816 61.7336 81.1565 60.9924 81.4766 61.5449C80.8095 63.0037 80.1323 64.4626 79.4113 65.8978C79.1923 65.6957 78.9262 65.5542 78.6061 65.4733C77.7537 65.1903 77.4808 64.3312 76.4768 64.3615C75.8266 64.3918 75.5132 63.7281 75.0112 63.3878C74.2363 63.0779 73.2626 63.2497 72.5147 62.8757C72.1946 62.4478 71.9689 61.966 71.605 61.5651C72.1946 61.1406 72.7876 60.7902 73.2155 60.1838C73.7478 59.8266 74.297 59.4493 74.8697 59.1696Z" fill="#94446B"/>
<path d="M72.8314 60.1635L73.2155 60.1838C72.7876 60.7902 72.1946 61.1406 71.605 61.5651C71.9689 61.966 72.1946 62.4478 72.5147 62.8757C73.2626 63.2497 74.2363 63.0779 75.0112 63.3878C75.5132 63.7281 75.8266 64.3918 76.4768 64.3615C77.4808 64.3312 77.7537 65.1903 78.6061 65.4733C78.9262 65.5542 79.1923 65.6957 79.4113 65.8978C78.9733 66.8007 78.569 67.7172 78.1412 68.6201C77.3966 67.9665 77.3292 69.048 76.6992 69.0985C76.433 68.7784 76.2848 68.4415 75.8906 68.2562C74.2296 67.4409 72.9729 66.1404 71.1974 65.5441C70.7324 64.9814 70.3214 64.914 69.6509 64.7321C69.5465 64.4861 69.4454 64.2368 69.3443 63.9909C68.8625 63.7786 68.2359 64.3211 67.9529 64.6782C67.5115 65.2476 66.8512 65.5508 66.4166 66.1236C65.9078 66.4942 65.3317 66.6828 64.7354 66.8648C65.5574 65.2981 67.6362 64.4626 68.9232 63.3069C70.1361 62.1749 71.5275 61.1878 72.8314 60.1635Z" fill="#7B436B"/>
<path d="M65.4294 60.4432C63.7246 62.8925 61.8311 65.2071 60.1702 67.6969C60.0489 66.8041 60.6924 66.3021 61.1169 65.5879C62.1344 64.0414 63.3405 62.6533 64.422 61.1574C64.6848 60.7531 64.988 60.6049 65.4294 60.4432Z" fill="#37265A"/>
<path d="M118.631 62.2288C118.557 62.6399 118.466 63.0475 118.382 63.4586C118.904 63.3474 119.194 63.0105 119.555 62.6533C120.003 63.6203 120.909 63.5798 121.728 64.193C121.937 64.1155 122.125 63.9942 122.294 63.8258C122.105 63.5226 121.809 63.3541 121.691 62.9936C122.055 63.0307 122.422 63.0745 122.782 63.125C123.335 63.4653 123.81 63.8797 124.282 64.3244C127.647 67.4106 130.838 70.6045 133.516 74.3207C132.128 74.2027 132.219 72.9258 131.229 72.2048C130.683 71.6995 130.097 72.407 129.457 71.9791C128.793 71.6321 128.402 71.6557 127.681 71.7871C127.071 71.9623 126.805 71.2716 126.381 70.9616C126.054 71.056 125.724 71.1436 125.393 71.2312C124.831 70.5708 124.295 70.6584 123.497 70.5607C123.55 70.2878 123.608 70.0149 123.665 69.7454C123.254 69.8229 122.829 69.9981 122.415 69.961C122.176 69.742 121.933 69.5264 121.694 69.3108C121.276 69.5297 120.882 69.8026 120.525 70.1092C120.511 70.4057 120.538 70.7089 120.613 71.0189L120.36 71.0357C119.7 69.9745 119.137 68.8559 118.453 67.8081C117.87 66.703 117.122 65.6822 116.469 64.6142C116.654 64.1829 117.051 63.9235 117.257 63.536C117.22 63.3373 117.179 63.1385 117.142 62.9397C117.385 62.9734 117.627 63.0004 117.87 63.0206C118.103 62.7679 118.284 62.3097 118.631 62.2288Z" fill="#7DEAE6"/>
<path d="M114.339 62.778C114.754 63.1924 115.074 63.3912 115.643 63.5327C115.923 63.8932 116.209 64.2402 116.469 64.6142C117.122 65.6822 117.87 66.7031 118.453 67.8081C117.91 68.8391 118.311 69.4624 118.797 70.3923C118.948 71.7298 117.506 72.3329 116.869 73.4616C116.202 73.3302 115.697 73.3436 115.03 73.475C114.551 73.256 114.033 72.0903 113.51 72.626C111.593 70.6921 109.43 69.0648 107.429 67.2286C108.012 66.7199 108.814 68.0945 109.548 67.8856C110.488 67.7677 110.93 66.7165 111.368 66.0023C111.62 65.4801 112.105 65.2543 112.132 64.6445C112.375 64.5637 112.621 64.4895 112.867 64.4188C112.88 64.0448 112.668 63.6877 112.702 63.3204C113.241 63.1183 113.79 62.9498 114.339 62.778Z" fill="#0980AB"/>
<path d="M69.3443 63.9909C69.4454 64.2369 69.5465 64.4862 69.6509 64.7321C70.3214 64.9141 70.7324 64.9815 71.1974 65.5441C72.9729 66.1404 74.2296 67.4409 75.8906 68.2563C76.2848 68.4416 76.433 68.7785 76.6992 69.0985C77.3292 69.048 77.3966 67.9665 78.1412 68.6201C77.6628 69.6376 77.1944 70.6618 76.7093 71.6759C76.0253 71.238 75.8872 71.5513 75.2808 71.8545C74.6171 70.5776 73.5255 70.2036 72.353 69.5332C71.0828 68.9705 69.8531 68.3102 68.5728 67.7644C68.5863 67.4847 68.6132 67.2051 68.6537 66.9255C68.2763 66.9827 67.899 67.0636 67.5183 67.0973C67.1679 66.6559 67.0129 66.2786 66.4166 66.1236C66.8512 65.5508 67.5115 65.2476 67.9529 64.6782C68.2359 64.3211 68.8626 63.7787 69.3443 63.9909Z" fill="#64446C"/>
<path d="M66.4166 66.1236C67.0129 66.2785 67.1679 66.6559 67.5183 67.0972C67.899 67.0636 68.2763 66.9827 68.6537 66.9254C68.6132 67.2051 68.5863 67.4847 68.5728 67.7643C69.8531 68.3101 71.0828 68.9705 72.353 69.5331C73.5254 70.2036 74.617 70.5776 75.2808 71.8545C75.8872 71.5513 76.0253 71.2379 76.7093 71.6759C76.0557 73.0135 75.5301 74.3982 74.9573 75.7694C74.4958 75.766 74.0477 75.7088 73.6164 75.5976C73.5288 75.3348 73.4412 75.0686 73.3536 74.8058C72.5753 74.6172 71.8274 74.4656 71.1468 74.0175C70.6078 73.7142 70.5033 73.1145 69.8565 72.9528C68.7413 72.6361 67.7844 72.1914 66.7737 71.6321C66.3627 71.3862 65.9786 71.5243 65.5237 71.5243C65.2374 71.1638 65.2879 70.8067 65.2407 70.3822C64.3075 70.3451 63.8088 69.7858 63.1586 69.2097C63.0339 68.6841 64.1997 68.3708 63.8122 67.825C64.1121 67.4948 64.4254 67.1848 64.7354 66.8648C65.3317 66.6828 65.9078 66.4942 66.4166 66.1236Z" fill="#4C426C"/>
<path d="M63.8122 67.825C64.1997 68.3708 63.0339 68.6841 63.1586 69.2097C63.8088 69.7859 64.3075 70.3451 65.2407 70.3822C65.2879 70.8067 65.2374 71.1638 65.5237 71.5243C65.9786 71.5243 66.3627 71.3862 66.7737 71.6321C67.7844 72.1914 68.7413 72.6361 69.8565 72.9528C70.5033 73.1146 70.6078 73.7143 71.1468 74.0175C71.8274 74.4656 72.5754 74.6172 73.3536 74.8059C73.4412 75.0687 73.5288 75.3348 73.6164 75.5976C74.0477 75.7088 74.4958 75.7661 74.9573 75.7695C73.8118 78.3704 72.8887 81.0759 72.0767 83.7947C71.8038 83.2793 71.8678 83.2321 71.3018 83.1917C71.1165 82.7604 70.9817 82.0226 70.4225 81.935C69.3612 81.8609 68.8861 80.9647 67.8451 80.6547C66.9523 80.3212 66.0527 80.466 65.4463 79.7012C65.0083 79.2228 64.2839 79.4923 63.9571 78.8286C63.5595 78.3468 63.1788 77.3024 62.5589 77.1339C62.2624 77.8347 61.7907 77.39 61.2449 77.262C61.2315 77.1003 61.218 76.9352 61.2079 76.7734C60.3791 76.3321 59.4728 75.51 58.489 75.8099C57.8859 76.1434 57.3536 76.605 56.7673 76.9689L56.6393 76.3523C57.458 74.8665 58.617 73.5424 59.6075 72.151C60.9215 70.6315 62.3837 69.2333 63.8122 67.825Z" fill="#2C3F6F"/>
<path d="M118.453 67.8082C119.137 68.856 119.7 69.9745 120.36 71.0358C121.549 73.3639 122.597 75.7728 123.419 78.2559C122.86 78.741 122.708 79.1015 122.88 79.8293C123.163 81.3218 123.749 83.0232 122.179 84.0137C122.034 83.4444 122.145 82.8581 121.677 82.4639C121.489 82.5111 121.33 82.6762 121.206 82.9592C120.697 82.5583 120.215 82.1236 119.713 81.7126C119.12 80.7153 118.662 79.6541 118.042 78.6703C116.711 76.477 115.087 74.6206 113.51 72.626C114.033 72.0903 114.551 73.2561 115.03 73.4751C115.697 73.3437 116.202 73.3302 116.869 73.4616C117.506 72.3329 118.948 71.7298 118.797 70.3923C118.311 69.4624 117.911 68.8391 118.453 67.8082Z" fill="#086D9E"/>
<path d="M121.694 69.3108C121.933 69.5264 122.176 69.742 122.415 69.961C122.829 69.9981 123.254 69.8229 123.665 69.7454C123.608 70.0149 123.55 70.2878 123.497 70.5607C124.295 70.6584 124.831 70.5709 125.393 71.2312C125.724 71.1436 126.054 71.056 126.381 70.9617C126.805 71.2716 127.071 71.9623 127.681 71.7871C128.402 71.6557 128.793 71.6321 129.457 71.9792C130.097 72.407 130.683 71.6995 131.229 72.2049C132.219 72.9259 132.128 74.2028 133.516 74.3207C135.777 77.3226 137.846 80.5536 139.345 84.007C139.113 84.1182 138.877 84.2192 138.637 84.3102C138.358 84.0676 138.098 83.7947 137.812 83.5623C137.155 83.6398 136.609 83.8857 135.949 83.6667C135.747 83.4511 135.568 83.0198 135.319 82.8884L135.049 83.2287C134.342 83.1714 133.247 82.8244 132.617 83.2186C132.317 83.3264 131.913 83.8318 131.599 83.6532C131.525 83.3736 131.454 83.094 131.384 82.8143C131.262 82.9558 131.138 83.094 131.013 83.2355C130.06 82.5751 128.648 82.5953 127.668 81.8777C127.378 81.9282 127.115 82.1742 126.852 82.3056C126.795 82.0226 126.738 81.7429 126.68 81.4599C126.364 81.7429 125.956 82.0394 125.788 82.4336C125.697 83.0367 125.75 83.6094 125.451 84.162C124.45 81.2611 123.988 78.1952 122.604 75.382C122.038 73.8794 121.293 72.471 120.613 71.0189C120.538 70.709 120.511 70.4058 120.525 70.1093C120.882 69.8027 121.276 69.5298 121.694 69.3108Z" fill="#6AE4E0"/>
<path d="M46.0029 73.9636C45.9254 74.9103 45.4403 75.6246 45.0933 76.5376C43.4727 80.3616 42.6776 84.3574 41.997 88.4307C41.1312 88.6429 41.5961 89.684 41.3063 90.3005C40.9492 90.7149 40.8582 90.9407 40.8246 91.4966C40.8077 91.9952 40.3933 92.4197 40.3125 92.9183C40.1811 93.7505 40.2181 94.613 40.0766 95.4418C39.7666 95.6945 39.4533 95.9371 39.1467 96.1965C39.4028 96.493 39.7599 96.6918 39.8374 97.0826C39.6251 97.0624 39.4129 97.0422 39.2006 97.0253C39.0355 97.8676 39.5039 99.2287 38.6717 99.724C38.7087 100.007 38.7525 100.293 38.7997 100.576C38.611 101.048 38.1629 101.412 37.8698 101.826C38.1629 101.904 38.4594 101.981 38.7525 102.059C39.0591 102.783 38.3348 102.955 38.0012 103.494C37.954 103.969 38.1461 104.458 38.1528 104.936C37.9271 105.185 37.7047 105.431 37.4824 105.684C37.543 106.435 37.671 107.197 37.6542 107.951C37.4049 108.224 36.9332 108.362 36.9366 108.757C36.8894 109.589 37.1017 110.424 37.0174 111.263C36.8018 111.58 36.3908 111.876 36.2661 112.23C36.4447 112.402 36.6334 112.567 36.8288 112.726C36.63 112.881 36.4447 113.042 36.2661 113.211C36.4312 113.504 36.6165 113.783 36.785 114.073C36.6199 114.329 36.4548 114.585 36.2931 114.845C36.4076 115.502 36.8052 115.987 36.6435 116.704C36.5323 116.937 36.3908 117.038 36.2156 117.004C35.9629 116.516 35.8551 116.021 35.6934 115.498L35.3632 115.751C35.2722 115.047 35.1374 114.356 35.0027 113.662C34.3592 108.059 34.3626 102.436 35.471 96.8906C35.7203 95.6878 35.9663 94.6905 36.1583 93.4743C36.758 91.7122 37.3207 89.8929 37.9001 88.1173C39.7532 83.5926 42.0071 79.2666 44.8237 75.2607C45.2044 74.7654 45.4201 74.2331 46.0029 73.9636Z" fill="#0DBBD8"/>
<path d="M58.489 75.8099C59.4727 75.51 60.379 76.3321 61.2079 76.7735C61.218 76.9352 61.2314 77.1003 61.2449 77.262C61.7907 77.39 62.2624 77.8347 62.5589 77.134C63.1788 77.3024 63.5595 78.3468 63.9571 78.8286C64.2839 79.4924 65.0082 79.2228 65.4462 79.7012C66.0527 80.466 66.9522 80.3212 67.8451 80.6547C68.8861 80.9647 69.3612 81.8609 70.4225 81.935C70.9817 82.0226 71.1165 82.7604 71.3018 83.1917C71.8678 83.2321 71.8038 83.2793 72.0767 83.7948C71.8274 84.8426 71.5444 85.8432 71.4433 86.9213C69.6947 86.4362 67.9158 86.2711 66.174 86.8843C64.1424 87.5817 61.912 88.5924 60.4532 90.213C58.5159 92.039 57.1514 94.8691 57.3771 97.5611C57.3974 98.4909 57.3738 99.3972 57.6265 100.3C57.96 101.796 58.6271 103.144 59.466 104.417C59.6378 104.69 59.8198 104.95 59.9646 105.236C59.4222 105.812 58.8225 106.317 58.3373 106.947C57.6804 106.402 57.3704 105.455 56.9392 104.724C56.2485 103.548 56.1878 102.214 55.5814 100.994C54.8604 99.9127 55.2108 98.6863 53.816 97.9755C53.1893 95.9439 52.9804 93.8853 52.7985 91.7729C52.6233 89.2966 52.8996 86.8573 53.314 84.418C54.0147 83.6735 53.5902 82.7031 54.0855 81.8002C54.6717 79.8427 55.5881 78.0942 56.6393 76.3523L56.7673 76.9689C57.3536 76.605 57.8859 76.1434 58.489 75.8099Z" fill="#123B6F"/>
<path d="M123.419 78.2559C123.749 79.3609 124.1 80.4761 124.298 81.6115C123.79 82.4909 124.143 83.2489 124.258 84.1721C124.463 85.5736 124.561 87.0358 124.396 88.4441C124.123 89.2291 123.594 89.465 122.816 89.3066C122.455 88.6564 122.176 87.9893 121.701 87.4098C121.088 85.4928 120.276 83.6465 119.713 81.7126C120.215 82.1236 120.697 82.5582 121.206 82.9592C121.33 82.6762 121.489 82.5111 121.677 82.4639C122.145 82.8581 122.034 83.4443 122.179 84.0137C123.749 83.0232 123.163 81.3218 122.88 79.8292C122.708 79.1015 122.86 78.741 123.419 78.2559Z" fill="#085C90"/>
<path d="M126.68 81.4599C126.738 81.7429 126.795 82.0225 126.852 82.3056C127.115 82.1742 127.378 81.9282 127.668 81.8777C128.648 82.5953 130.06 82.5751 131.013 83.2354C131.138 83.0939 131.262 82.9558 131.384 82.8143C131.454 83.0939 131.525 83.3736 131.599 83.6532C131.913 83.8318 132.317 83.3264 132.617 83.2186C133.247 82.8244 134.342 83.1714 135.049 83.2287L135.319 82.8884C135.568 83.0198 135.747 83.4511 135.949 83.6667C136.609 83.8857 137.155 83.6397 137.812 83.5623C138.098 83.7947 138.358 84.0676 138.637 84.3102C138.877 84.2192 139.112 84.1182 139.345 84.007C141.114 87.5311 142.354 91.3686 143.31 95.1892C143.401 95.5362 143.418 95.8798 143.354 96.2201C143.29 96.6413 143.226 97.0624 143.169 97.4835L143.021 97.4431C142.792 96.1258 142.458 94.9028 141.791 93.7337C141.316 93.6394 141.053 93.4675 140.767 93.0632C140.777 92.787 140.797 92.5107 140.827 92.2344C140.44 92.0963 139.988 92.6219 139.635 92.7768C139.584 92.3692 139.537 91.9649 139.5 91.5572C139.369 91.6953 139.234 91.8335 139.102 91.9716C138.533 91.9042 137.984 91.9952 137.421 91.9683C136.417 91.1226 135.238 91.0552 134.055 90.6139C133.136 90.2938 132.277 90.8329 131.633 89.9805C130.518 89.6503 129.487 89.3605 128.439 88.8316C127.819 89 127.806 90.2433 127.688 90.7587C127.529 90.5802 127.368 90.4016 127.206 90.223C127.098 90.7587 127.102 91.1866 126.64 91.5606C126.529 90.8564 126.286 90.1995 126.293 89.4785C126.246 87.6423 125.521 85.9981 125.451 84.162C125.75 83.6094 125.697 83.0367 125.788 82.4336C125.956 82.0394 126.364 81.7429 126.68 81.4599Z" fill="#55DEDC"/>
<path d="M124.298 81.6115C125.151 85.7219 125.67 89.8221 125.168 94.0234C124.969 96.402 124.497 98.7672 123.884 101.072C122.947 100.327 122.688 98.747 123.207 97.6823C123.463 97.3016 123.257 96.3515 122.779 96.3077C122.509 96.7356 122.479 97.5341 122.115 97.8339C122.041 96.4896 122.088 95.1622 122.257 93.828C122.516 91.5673 121.889 89.62 121.701 87.4098C122.176 87.9893 122.455 88.6564 122.816 89.3066C123.594 89.465 124.123 89.2291 124.396 88.4441C124.561 87.0358 124.463 85.5736 124.258 84.1721C124.143 83.2489 123.79 82.4909 124.298 81.6115Z" fill="#0F497D"/>
<path d="M53.4521 82.3157C53.6677 83.0569 53.442 83.6936 53.3139 84.418C52.8995 86.8573 52.6233 89.2965 52.7985 91.7729C52.6132 93.1508 52.6132 94.5456 52.8995 95.9101C53.1118 96.6918 52.7917 97.652 53.3005 98.2787C53.3577 98.7941 53.4487 99.3063 53.5262 99.8217C53.4116 100.186 53.3375 100.556 53.2971 100.94C52.94 99.8689 52.8625 98.6661 52.5795 97.5779C52.2864 96.1864 52.4851 94.923 52.3773 93.5147C52.1347 92.0559 52.192 90.5499 52.1246 89.0708C52.4245 86.7899 52.9299 84.5562 53.4521 82.3157Z" fill="#E7CAD6"/>
<path d="M116.196 85.4962C116.708 85.6848 116.839 85.8903 117.065 86.362C117.941 88.2791 119.076 90.1321 119.787 92.0828C120.107 93.1138 120.37 94.1751 120.629 95.2229C120.939 96.4492 120.791 97.5813 120.842 98.8346C120.707 99.7038 120.794 101.058 120.013 101.634C120.343 99.2389 120.542 96.5773 119.942 94.2087C119.477 92.787 119.245 91.3753 118.412 90.0917C117.695 88.5351 116.799 87.1032 116.196 85.4962Z" fill="#472757"/>
<path d="M100.239 86.0285C99.9934 86.6181 99.6363 87.3391 99.0635 87.6794C98.8041 87.8444 98.575 88.0365 98.383 88.2589C98.1202 88.3363 97.8506 88.4004 97.5811 88.4543C97.1465 88.0365 96.7119 88.0668 96.1526 87.9893C96.439 87.7029 96.7523 87.4637 97.0656 87.211C96.3446 87.1268 95.7213 87.1234 95.0408 87.3997C93.5583 87.9489 92.0287 88.1982 90.6272 88.9596L90.1387 88.7069C93.0631 87.0089 96.8635 85.9813 100.239 86.0285Z" fill="#6E5F7D"/>
<path d="M100.239 86.0284C101.759 86.0318 103.154 86.207 104.636 86.5136C103.925 87.2009 103.073 87.6288 102.247 88.1476C101.914 88.1375 101.584 88.1308 101.253 88.1308C100.607 87.6423 99.8418 87.7535 99.0635 87.6793C99.6363 87.339 99.9934 86.618 100.239 86.0284Z" fill="#8B6586"/>
<path d="M111.55 86.5237C113.254 86.9381 114.494 87.9624 115.97 88.8249C116.185 89.1382 116.411 89.4582 116.597 89.7918C116.169 90.3612 115.741 91.0316 115.013 91.2169C113.894 90.0108 112.402 89.0102 110.798 88.6059C109.437 88.2723 108.231 88.5924 106.893 88.808C106.186 88.2454 105.913 87.6221 106.749 87.0021L106.752 86.8371L106.54 86.645C108.201 86.1464 109.878 85.9543 111.55 86.5237Z" fill="#F5655B"/>
<path d="M71.4433 86.9213L71.6084 87.0864L71.8543 87.5075C71.7398 87.9623 71.8611 88.3767 71.3759 88.6193C70.9783 88.7406 70.5673 88.8282 70.1428 88.8788C68.5964 88.5452 67.1375 88.6732 65.736 89.4246C63.6437 90.5566 61.6155 92.3153 60.6519 94.5389C60.0657 94.6804 59.6142 94.5018 59.0651 94.3368C58.7686 94.896 58.6102 95.5294 58.3306 96.0955C58.1588 96.082 57.9869 96.0719 57.8151 96.0618C57.8387 97.4802 57.7376 98.8885 57.6264 100.3C57.3738 99.3972 57.3973 98.4909 57.3771 97.561C57.1514 94.8691 58.5159 92.039 60.4532 90.2129C61.912 88.5924 64.1424 87.5816 66.174 86.8842C67.9158 86.271 69.6947 86.4361 71.4433 86.9213Z" fill="#18BDD9"/>
<path d="M76.5577 86.5641C80.7118 86.0015 85.2972 86.9078 88.9965 88.8619V89.4481C88.0262 89.3774 87.0424 89.2864 86.0688 89.3032C85.8801 89.374 85.7217 89.5256 85.5903 89.7648C82.5278 88.7676 79.3608 88.3127 76.1365 88.5115C75.6918 88.2386 75.301 87.804 74.8259 87.6086C73.8253 87.4704 72.8482 87.3357 71.8543 87.5075L71.6084 87.0864C73.3705 87.4165 74.8495 86.7697 76.5577 86.5641Z" fill="#4372AB"/>
<path d="M104.636 86.5136C105.067 86.6416 105.488 86.6787 105.906 86.6282C106.118 86.6248 106.331 86.6315 106.54 86.645L106.752 86.8371L106.749 87.0021C105.913 87.6221 106.186 88.2453 106.893 88.808C106.819 89.1618 106.745 89.5155 106.674 89.8659C106.617 89.5222 106.543 89.1853 106.452 88.8518C103.683 89.7278 101.068 91.3921 98.831 93.2317C98.1774 93.7472 97.5575 94.293 97.0555 94.9601C96.4221 95.5059 95.9235 96.2134 95.5663 96.9681C95.3204 97.2578 95.1048 97.5678 94.9161 97.9047C94.6769 97.6621 94.3636 97.4903 93.9761 97.3926C94.0705 96.8838 93.875 96.3549 94.1547 95.927C94.4579 95.361 94.5792 95.142 94.3905 94.485C94.6196 94.0773 94.8858 93.7067 95.1857 93.3462C96.1795 92.8375 96.9005 91.8503 97.8001 91.1832C99.1511 89.967 100.768 89.1651 102.247 88.1476C103.073 87.6288 103.925 87.2009 104.636 86.5136Z" fill="#F26C66"/>
<path d="M97.0656 87.211C96.7523 87.4637 96.439 87.7029 96.1526 87.9893C96.7119 88.0668 97.1465 88.0365 97.5811 88.4542C95.6978 88.562 93.7942 89.5155 92.0759 90.2567C92.1602 90.4353 92.2579 90.6071 92.369 90.7756C91.2505 90.2432 90.1926 89.7985 88.9965 89.4481V88.8619C89.3638 89.0202 89.7445 88.9697 90.1387 88.7069L90.6272 88.9596C92.0288 88.1982 93.5583 87.9489 95.0408 87.3997C95.7213 87.1234 96.3446 87.1268 97.0656 87.211Z" fill="#54597E"/>
<path d="M71.8543 87.5075C72.8482 87.3357 73.8253 87.4704 74.8259 87.6086C75.301 87.804 75.6918 88.2386 76.1365 88.5115L76.1197 88.6901L75.9478 89.1213C76.4027 89.7581 76.9518 90.0916 77.6627 90.3948C77.9019 90.8025 78.1445 91.1765 78.468 91.5235C78.313 91.8267 78.0805 92.1131 77.7604 92.3793C75.8097 91.0619 73.6467 89.9703 71.3894 89.2864C71.2546 89.3066 71.1232 89.3302 70.9885 89.3605C70.7122 89.1921 70.4292 89.0304 70.1428 88.8787C70.5673 88.8282 70.9784 88.7406 71.3759 88.6193C71.8611 88.3767 71.7398 87.9623 71.8543 87.5075Z" fill="#1099BD"/>
<path d="M99.0635 87.6794C99.8418 87.7535 100.607 87.6423 101.253 88.1308C100.287 88.1207 99.3432 88.0904 98.383 88.2588C98.575 88.0365 98.8041 87.8444 99.0635 87.6794Z" fill="#615265"/>
<path d="M41.997 88.4307C41.8185 91.3382 41.8319 94.2357 42.0105 97.1433C41.5018 98.3898 42.2564 99.8251 41.4748 100.87C41.0975 102.099 41.6197 103.029 41.4917 104.168C41.2929 104.144 41.0941 104.121 40.8953 104.097C41.0166 104.579 41.0537 105.02 41.057 105.516C41.2086 105.674 41.3636 105.832 41.522 105.984C40.6527 106.594 40.8313 107.372 41.5018 108.036C41.2457 108.824 41.5018 109.532 40.993 110.216C41.175 110.384 41.3569 110.549 41.5456 110.711C41.303 111.118 40.8246 111.469 40.6494 111.89C40.8212 112.058 41.0031 112.224 41.1851 112.382C41.0604 112.719 40.3967 113.261 40.6022 113.602C40.8549 113.672 41.1042 113.746 41.3535 113.824C41.4108 114.717 41.2828 115.259 40.9358 116.078C41.3636 117.24 41.0907 117.597 40.6393 118.648C41.431 118.952 40.7572 119.356 40.6426 119.919C40.3394 120.481 40.6763 120.926 40.774 121.502C40.6393 121.795 40.4607 122.058 40.3192 122.348C40.6022 122.654 40.9661 122.779 40.9897 123.244C41.0166 124.117 41.7646 124.437 41.276 125.367C40.9021 125.757 41.0907 126.141 41.0537 126.627C41.084 127.044 40.8178 127.361 40.6662 127.738C40.8785 127.87 41.0301 128.025 41.1244 128.207C41.0469 128.5 40.9661 128.79 40.8785 129.083C41.2221 129.1 41.4849 128.911 41.7039 129.268C41.4883 130.414 42.3104 131.054 41.3603 132.081L41.1446 132.027C38.5032 126.812 36.2695 121.573 35.3632 115.751L35.6934 115.498C35.8551 116.021 35.9629 116.516 36.2156 117.004C36.3908 117.038 36.5323 116.937 36.6435 116.704C36.8052 115.987 36.4076 115.502 36.2931 114.845C36.4548 114.585 36.6199 114.329 36.785 114.073C36.6165 113.783 36.4312 113.504 36.2661 113.211C36.4447 113.042 36.63 112.881 36.8288 112.726C36.6334 112.567 36.4447 112.402 36.2661 112.23C36.3908 111.877 36.8018 111.58 37.0174 111.263C37.1017 110.424 36.8894 109.589 36.9366 108.757C36.9332 108.362 37.4049 108.224 37.6542 107.951C37.671 107.197 37.543 106.435 37.4824 105.684C37.7047 105.431 37.9271 105.185 38.1528 104.936C38.1461 104.458 37.9541 103.969 38.0012 103.494C38.3348 102.955 39.0591 102.783 38.7525 102.059C38.4594 101.981 38.1629 101.904 37.8698 101.826C38.1629 101.412 38.611 101.048 38.7997 100.576C38.7525 100.293 38.7087 100.007 38.6717 99.724C39.5039 99.2288 39.0355 97.8676 39.2006 97.0253C39.4129 97.0422 39.6252 97.0624 39.8374 97.0826C39.7599 96.6918 39.4028 96.493 39.1467 96.1965C39.4533 95.9371 39.7667 95.6945 40.0766 95.4419C40.2181 94.613 40.1811 93.7505 40.3125 92.9184C40.3933 92.4197 40.8077 91.9952 40.8246 91.4966C40.8583 90.9407 40.9492 90.7149 41.3063 90.3005C41.5961 89.684 41.1312 88.6429 41.997 88.4307Z" fill="#12C7DB"/>
<path d="M110.798 88.6058C112.402 89.0101 113.894 90.0108 115.013 91.2169C115.721 92.5241 116.64 93.5618 117.125 95.0038C117.574 96.5031 118.079 97.9552 118.244 99.5218C117.53 100.29 117.149 101.291 116.462 102.093C113.743 105.573 109.37 107.823 105.05 108.504C103.245 108.635 101.264 108.733 99.5015 108.275C98.6458 107.85 97.8304 107.355 97.0858 106.755C97.5036 106.927 98.0157 107.571 98.4369 107.156L98.5346 107.086L98.5918 107.564C98.9827 107.54 99.3668 107.547 99.7508 107.581C100.115 107.631 100.634 108.137 100.974 107.84C102.409 105.667 103.918 103.467 105.03 101.109C106.664 97.6014 107.16 93.6932 106.674 89.8659C106.745 89.5155 106.819 89.1617 106.893 88.808C108.231 88.5923 109.437 88.2723 110.798 88.6058Z" fill="#D92F63"/>
<path d="M70.1428 88.8787C70.4292 89.0304 70.7122 89.1921 70.9885 89.3605C70.3483 94.0403 71.1502 98.9626 73.3064 103.174C74.2667 104.943 75.4155 106.816 76.9923 108.1C75.5334 108.305 73.7613 107.995 72.3462 108.464C72.0834 108.602 71.8543 108.807 71.6522 109.077C71.0121 109.07 70.3921 109.009 69.7688 108.841C70.2708 108.763 71.632 108.595 71.824 108.09C70.5943 107.891 69.3915 107.611 68.1752 107.345C64.8667 106.199 61.9255 104.131 60.3892 100.903C59.5536 98.7975 59.6378 96.5705 60.652 94.5389C61.6155 92.3153 63.6437 90.5566 65.736 89.4245C67.1375 88.6732 68.5964 88.5452 70.1428 88.8787Z" fill="#0C3971"/>
<path d="M76.1197 88.6901C77.6526 89.6099 79.3776 90.4656 80.7017 91.6752C80.038 92.5781 80.9982 92.7701 81.3823 93.5147C81.2037 94.266 80.3446 93.4204 79.7954 93.9291C79.1351 93.39 78.4376 92.8981 77.7604 92.3793C78.0805 92.1131 78.313 91.8268 78.468 91.5235C78.1445 91.1765 77.9019 90.8025 77.6627 90.3949C76.9518 90.0916 76.4027 89.7581 75.9478 89.1213L76.1197 88.6901Z" fill="#1A81AC"/>
<path d="M115.97 88.8248C116.63 88.8383 116.708 89.155 117.112 89.5728C117.557 89.7278 117.995 89.8726 118.412 90.0916C119.245 91.3753 119.477 92.7869 119.942 94.2087C120.542 96.5772 120.343 99.2388 120.013 101.634L119.74 102.008C119.629 101.446 119.571 100.876 119.518 100.303C118.995 100.991 119.043 101.722 118.918 102.534L118.429 102.51C118.541 101.564 119.093 100.667 118.288 99.8386L118.244 99.5219C118.079 97.9552 117.574 96.5031 117.125 95.0038C116.64 93.5618 115.721 92.5241 115.013 91.2169C115.741 91.0316 116.169 90.3612 116.597 89.7918C116.411 89.4582 116.185 89.1382 115.97 88.8248Z" fill="#E34258"/>
<path d="M128.439 88.8316C129.487 89.3606 130.518 89.6503 131.633 89.9805C132.277 90.8329 133.136 90.2938 134.055 90.6139C135.238 91.0552 136.417 91.1226 137.421 91.9683C137.984 91.9952 138.533 91.9043 139.102 91.9716C139.234 91.8335 139.369 91.6954 139.5 91.5572C139.537 91.9649 139.584 92.3692 139.635 92.7769C139.988 92.6219 140.44 92.0963 140.827 92.2344C140.797 92.5107 140.777 92.787 140.767 93.0633C141.053 93.4676 141.316 93.6394 141.791 93.7337C142.458 94.9028 142.792 96.1258 143.021 97.4431L143.169 97.4836C143.226 97.0624 143.29 96.6413 143.354 96.2201L143.529 96.1224C143.748 97.7194 144.136 99.2355 144.19 100.846C143.691 102.308 143.978 104.04 143.846 105.57L143.654 105.546C143.6 104.929 143.597 104.306 143.553 103.69C143.25 103.865 142.957 104.057 142.657 104.235C142.613 103.747 142.596 103.255 142.542 102.77C142.357 102.776 142.175 102.783 141.993 102.787C141.441 102.278 141.03 101.742 140.76 101.038C140.413 100.967 140.059 101.22 139.702 101.176C139.608 100.923 139.513 100.671 139.416 100.418C138.947 100.192 138.553 99.9565 138.183 99.5859C137.65 99.7139 137.138 99.8891 136.582 99.9026C136.771 99.7072 136.953 99.5084 137.131 99.3029C136.127 99.0569 135.228 99.1479 134.352 98.4842C134.349 98.2888 134.345 98.0934 134.349 97.9013C134.099 97.9889 133.884 98.154 133.698 98.3966C133.203 98.0732 132.711 97.8643 132.28 97.4296C131.047 97.0826 129.645 96.931 128.981 95.6676C128.314 95.9135 127.89 96.2639 127.145 96.0079C127.088 96.6008 127.091 97.2073 126.977 97.7901C126.802 97.962 126.62 98.1237 126.428 98.2753C126.67 96.0348 126.546 93.8011 126.64 91.5606C127.102 91.1866 127.098 90.7587 127.206 90.2231C127.368 90.4016 127.529 90.5802 127.688 90.7588C127.806 90.2433 127.819 89.0001 128.439 88.8316Z" fill="#44D8D8"/>
<path d="M52.1247 89.0708C52.192 90.5499 52.1348 92.0559 52.3773 93.5147C52.4852 94.923 52.2864 96.1864 52.5795 97.5779C52.8625 98.6661 52.94 99.8689 53.2971 100.94C53.9204 103.019 54.5201 105.121 55.3018 107.14C56.0093 108.827 56.9156 110.381 57.8017 111.971C56.6764 111.55 56.7033 110.522 55.9486 109.757C55.477 109.68 55.5106 110.269 55.4264 110.573C55.2108 110.768 54.9851 110.957 54.756 111.139C54.6279 111.671 55.2142 112.422 54.8638 112.931C54.7122 113.126 54.4157 113.585 54.1428 113.571C54.0046 113.42 53.8665 113.268 53.7284 113.116C53.6812 114.427 52.6469 115.161 52.5458 116.482C52.0606 115.34 51.8484 114.117 51.37 112.978C50.1908 107.621 50.1335 101.981 50.8107 96.5503C51.2723 94.047 51.4778 91.5437 52.1247 89.0708Z" fill="#FD7569"/>
<path d="M86.0687 89.3032C87.0424 89.2864 88.0262 89.3774 88.9965 89.4481C90.1926 89.7985 91.2505 90.2432 92.369 90.7756C92.7531 90.9036 93.0395 91.2607 93.3697 91.4932C93.3562 92.3624 94.1681 92.4837 94.3703 93.171C94.3534 93.9998 93.1978 93.8011 92.6453 93.9392C91.8333 93.1811 90.9641 92.4197 90.014 91.8368C89.4648 91.5572 89.0976 91.8335 88.6394 92.1097C87.5242 92.8341 86.4596 93.7135 85.4555 94.5557C85.2433 94.2727 85.0108 93.9998 84.8221 93.7033C85.0243 93.5214 85.2298 93.3462 85.4454 93.1811C85.1759 92.9049 84.8794 92.6522 84.5594 92.4264C85.2905 91.6617 86.1496 91.0855 86.9481 90.3982L86.9986 90.1253C86.5505 89.8625 86.0889 89.8592 85.5903 89.7648C85.7217 89.5256 85.8801 89.374 86.0687 89.3032Z" fill="#1363A0"/>
<path d="M93.3697 91.4932C94.0873 92.0289 94.7712 92.5208 95.1856 93.3463C94.8858 93.7068 94.6196 94.0774 94.3905 94.485C94.2322 94.6333 94.0805 94.7815 93.9256 94.9331C93.4707 94.6333 93.0294 94.3334 92.6453 93.9392C93.1978 93.8011 94.3534 93.9999 94.3703 93.1711C94.1681 92.4837 93.3562 92.3625 93.3697 91.4932Z" fill="#4B5476"/>
<path d="M52.7985 91.7729C52.9804 93.8853 53.1893 95.9438 53.816 97.9754C54.6919 101.146 55.8408 104.468 57.7276 107.21C57.458 107.372 57.1851 107.53 56.9089 107.682C55.3759 104.919 54.3449 101.958 53.5566 98.902C53.5128 98.6796 53.4285 98.4707 53.3005 98.2787C52.7918 97.652 53.1118 96.6918 52.8996 95.9102C52.6132 94.5456 52.6132 93.1508 52.7985 91.7729Z" fill="#DCC9D8"/>
<path d="M80.7017 91.6752C81.5069 92.3591 82.201 93.1475 82.959 93.8584C83.5453 93.4743 84.027 92.8881 84.5594 92.4265C84.8794 92.6522 85.1759 92.9049 85.4455 93.1812C85.2298 93.3463 85.0243 93.5214 84.8222 93.7034C85.0108 93.9999 85.2433 94.2728 85.4556 94.5558C85.2029 94.8624 84.4482 95.2465 84.556 95.6946C84.273 96.146 84.0338 96.6143 83.7912 97.086C83.4004 96.9984 83.0197 96.8771 82.6289 96.7828C82.2785 97.0018 81.9517 97.2511 81.6013 97.4701C80.6983 97.2275 81.6249 96.5537 80.6983 96.1528C80.8601 95.9034 81.3317 95.6137 81.2104 95.297C80.759 94.8219 80.2637 94.3873 79.7954 93.9291C80.3446 93.4204 81.2037 94.266 81.3823 93.5147C80.9982 92.7701 80.038 92.5781 80.7017 91.6752Z" fill="#075584"/>
<path d="M59.0651 94.3368C59.6142 94.5018 60.0657 94.6804 60.6519 94.5389C59.6378 96.5705 59.5536 98.7975 60.3891 100.903C61.9255 104.131 64.8667 106.2 68.1752 107.345C68.2157 107.52 68.2527 107.695 68.2932 107.871L67.7945 108.063C64.9948 107.086 62.2422 105.559 60.1634 103.417C59.9343 103.757 59.7221 104.101 59.466 104.417C58.6271 103.144 57.96 101.796 57.6264 100.3C57.7376 98.8885 57.8387 97.4802 57.8151 96.0618C57.9869 96.0719 58.1588 96.082 58.3306 96.0955C58.6102 95.5294 58.7686 94.896 59.0651 94.3368Z" fill="#0BA4C2"/>
<path d="M94.3905 94.485C94.5792 95.142 94.4579 95.361 94.1547 95.927C93.875 96.3549 94.0705 96.8838 93.9761 97.3926C94.3636 97.4903 94.6769 97.6621 94.9161 97.9047C94.5152 98.4909 94.1412 99.0704 93.8313 99.7139C93.555 99.3837 93.2888 99.0367 93.0058 98.7133C92.6857 98.7604 92.3657 98.8177 92.049 98.8918C92.4499 97.4532 93.5112 96.338 93.9256 94.9331C94.0806 94.7815 94.2322 94.6332 94.3905 94.485Z" fill="#D54143"/>
<path d="M97.0555 94.9601C97.9315 96.2168 98.8984 97.5678 99.2994 99.067C100.044 101.641 100.034 104.771 98.5346 107.086L98.4369 107.156C98.42 106.304 98.5952 105.492 98.4807 104.636C98.4807 101.793 97.3284 99.1614 95.5663 96.9681C95.9235 96.2134 96.4221 95.5059 97.0555 94.9601Z" fill="#153F6F"/>
<path d="M128.981 95.6676C129.645 96.931 131.047 97.0826 132.28 97.4296C132.711 97.8642 133.203 98.0731 133.698 98.3966C133.884 98.154 134.099 97.9889 134.349 97.9013C134.345 98.0934 134.349 98.2888 134.352 98.4842C135.228 99.1479 136.127 99.0569 137.131 99.3029C136.953 99.5084 136.771 99.7072 136.582 99.9026C137.138 99.8891 137.65 99.7139 138.183 99.5859C138.553 99.9565 138.947 100.192 139.416 100.418C139.513 100.671 139.608 100.923 139.702 101.176C140.059 101.22 140.413 100.967 140.76 101.038C141.03 101.742 141.441 102.278 141.993 102.787C142.175 102.783 142.357 102.776 142.542 102.77C142.596 103.255 142.613 103.747 142.657 104.235C142.957 104.057 143.25 103.865 143.553 103.689C143.597 104.306 143.6 104.929 143.654 105.546L143.846 105.569C143.978 104.04 143.691 102.308 144.19 100.846C144.594 104.222 144.571 107.689 144.348 111.078C144.166 112.645 143.967 114.208 143.674 115.761C143.533 114.798 142.829 114.174 142.822 113.17C142.886 112.166 141.996 111.816 141.767 110.852C141.532 110.751 141.296 110.65 141.063 110.549C140.794 110.077 140.864 109.464 140.211 109.414C139.564 109.323 139.362 109.151 138.893 108.757C138.681 108.8 138.469 108.844 138.257 108.895C138.317 108.612 138.375 108.329 138.429 108.046C137.937 107.301 137.054 108.292 136.262 107.935C136.05 107.594 136.643 107.288 136.815 107.015C136.134 106.964 136.107 107.022 135.706 107.544C135.285 107.187 134.965 106.6 134.473 106.361C133.937 106.317 133.398 106.331 132.863 106.284C132.219 105.795 131.532 105.384 130.932 104.835C130.386 104.619 129.736 104.653 129.157 104.552C129.345 104.198 129.777 103.976 130.076 103.716C129.403 103.585 128.793 103.595 128.217 103.181C128.213 102.891 128.244 102.601 128.304 102.308C128.119 102.069 127.833 102.123 127.563 102.059C127.166 101.692 127.169 101.223 126.512 101.334C126.445 101.857 126.418 102.382 126.367 102.908C126.168 102.679 125.966 102.453 125.764 102.231C126.03 100.92 126.165 99.5825 126.428 98.2753C126.62 98.1237 126.802 97.962 126.977 97.7901C127.091 97.2073 127.088 96.6008 127.145 96.0079C127.89 96.2639 128.314 95.9135 128.981 95.6676Z" fill="#34D0D4"/>
<path d="M84.556 95.6945C85.0445 96.21 85.341 96.8265 85.6105 97.4768C84.5863 98.3763 85.8262 99.4915 84.364 99.9497C83.9866 99.0704 83.4307 98.2652 82.9456 97.4431L82.6524 97.3723C80.3277 100.179 78.7476 103.356 79.2732 107.096L78.9902 106.927C77.3326 103.326 78.4242 99.2052 80.6983 96.1527C81.6249 96.5536 80.6983 97.2275 81.6013 97.47C81.9517 97.251 82.2785 97.0017 82.6289 96.7827C83.0197 96.8771 83.4004 96.9984 83.7912 97.086C84.0338 96.6143 84.273 96.146 84.556 95.6945Z" fill="#0F3F66"/>
<path d="M42.0105 97.1432C42.3002 99.3265 42.6439 101.496 43.1796 103.636C44.7024 109.751 47.7145 115.259 51.6429 120.158C51.1779 120.03 50.7837 119.791 50.3626 119.565C49.8943 119.966 49.4428 120.417 49.0453 120.889C49.7898 121.906 49.6079 122.947 49.7865 124.117C49.992 124.305 50.211 124.477 50.4502 124.635C49.7932 125.279 50.1503 125.461 50.1335 126.266C49.9852 126.495 49.8101 126.711 49.6079 126.91C49.5944 127.664 49.9347 127.816 50.6052 127.695C50.6052 127.951 50.5883 128.207 50.5614 128.463C50.1503 128.53 49.7393 128.584 49.3283 128.631C49.4833 128.763 49.6382 128.897 49.7932 129.032C49.5641 130.077 49.0486 130.74 49.4765 131.845C49.2103 131.906 48.9442 131.963 48.6747 132.017C48.8229 132.24 48.9678 132.469 49.1059 132.698C48.9442 133.247 48.5904 133.554 48.7656 134.187C49.0385 134.43 50.2278 134.675 49.8606 135.177C49.5742 135.255 49.2845 135.329 48.9981 135.396C49.2541 135.605 49.5338 135.794 49.7663 136.033C49.9313 137.054 49.7764 138.594 51.1206 138.776C51.1409 139.84 51.4205 140.743 50.6961 141.643C51.2386 142.121 51.5586 142.229 52.2662 142.199C52.2021 142.553 51.9865 142.943 52.0606 143.297C52.2998 143.647 52.5559 143.533 52.913 143.563C53.2163 143.968 53.0579 144.395 53.2297 144.827C53.5835 145.325 54.072 145.332 54.6043 145.531C54.355 146.097 53.4723 146.292 52.9568 146.528C49.1025 143.233 45.7907 139.379 43.0448 135.12C42.4384 134.167 41.7106 133.163 41.3602 132.081C42.3103 131.054 41.4883 130.414 41.7039 129.268C41.4849 128.911 41.2221 129.1 40.8785 129.083C40.9661 128.79 41.0469 128.5 41.1244 128.207C41.0301 128.025 40.8785 127.87 40.6662 127.738C40.8178 127.361 41.084 127.044 41.0537 126.627C41.0907 126.141 40.902 125.757 41.276 125.367C41.7645 124.437 41.0166 124.117 40.9896 123.244C40.9661 122.779 40.6022 122.654 40.3192 122.348C40.4607 122.058 40.6393 121.795 40.774 121.502C40.6763 120.926 40.3394 120.481 40.6426 119.919C40.7572 119.356 41.431 118.952 40.6393 118.648C41.0907 117.597 41.3636 117.24 40.9357 116.078C41.2828 115.259 41.4108 114.717 41.3535 113.824C41.1042 113.746 40.8549 113.672 40.6022 113.601C40.3967 113.261 41.0604 112.719 41.1851 112.382C41.0031 112.224 40.8212 112.058 40.6494 111.89C40.8246 111.469 41.303 111.118 41.5456 110.711C41.3569 110.549 41.1749 110.384 40.993 110.216C41.5018 109.532 41.2457 108.824 41.5018 108.036C40.8313 107.372 40.6527 106.594 41.522 105.984C41.3636 105.832 41.2086 105.674 41.057 105.516C41.0537 105.02 41.0166 104.579 40.8953 104.097C41.0941 104.121 41.2929 104.144 41.4916 104.168C41.6197 103.029 41.0975 102.099 41.4748 100.87C42.2564 99.8251 41.5018 98.3898 42.0105 97.1432Z" fill="#16D5DF"/>
<path d="M85.6105 97.4768C86.1327 98.8548 86.7089 100.085 86.6988 101.604C86.7998 103.538 86.1766 105.492 85.058 107.062C83.6295 108.908 81.7158 109.943 79.6034 110.815C80.0077 110.957 80.3917 111.011 80.7623 111.22C82.4503 112.129 84.3842 112.928 86.3012 113.103L86.3349 113.453C84.9502 113.689 83.4981 112.971 82.1639 112.577C80.6916 112.153 79.4989 110.751 77.9019 111.091C74.2633 111.587 70.5404 111.701 67.2319 109.862C67.6867 109.296 68.3268 109.019 68.94 108.635C69.2163 108.706 69.4926 108.777 69.7688 108.841C70.3921 109.009 71.012 109.07 71.6522 109.077C73.3266 109.427 74.9 109.174 76.5678 108.989C77.1405 108.932 77.4976 108.733 77.9188 108.359C78.724 108.042 79.4821 107.854 80.2401 107.355C81.4025 106.685 82.5244 106.122 83.3599 105.027C84.5088 103.531 85.25 101.783 84.364 99.9498C85.8262 99.4916 84.5863 98.3764 85.6105 97.4768Z" fill="#092C56"/>
<path d="M53.816 97.9754C55.2108 98.6863 54.8604 99.9127 55.5814 100.994C56.1878 102.214 56.2485 103.548 56.9392 104.724C57.3704 105.455 57.6804 106.402 58.3374 106.947C59.5604 108.026 59.8838 109.848 61.5279 110.266C61.9491 111.432 63.199 111.627 63.3675 112.81C62.6431 112.439 62.0704 111.903 61.4504 111.391C60.0522 110.168 58.8562 108.679 57.7275 107.21C55.8408 104.468 54.6919 101.146 53.816 97.9754Z" fill="#322E5D"/>
<path d="M53.3005 98.2787C53.4285 98.4707 53.5127 98.6796 53.5565 98.9019C54.3449 101.958 55.3759 104.919 56.9088 107.682C57.303 108.43 57.8353 109.127 58.1419 109.916L57.9364 110.377C55.706 107.116 54.4898 103.615 53.5262 99.8217C53.4487 99.3062 53.3578 98.7941 53.3005 98.2787Z" fill="#936280"/>
<path d="M93.0058 98.7133C93.2888 99.0367 93.555 99.3837 93.8312 99.7139C93.6796 100.081 93.6021 100.458 93.5314 100.846C92.7127 101.264 93.0125 101.911 92.9991 102.662C92.8845 102.473 92.7565 102.295 92.6116 102.126C92.4634 102.113 92.3151 102.096 92.1669 102.082C92.0591 101.301 92.2343 100.455 91.7693 99.8015C91.8569 99.4983 91.9513 99.1917 92.049 98.8918C92.3657 98.8177 92.6857 98.7604 93.0058 98.7133Z" fill="#C6272B"/>
<path d="M120.842 98.8346C121.596 100.421 120.545 101.719 122.048 102.979C121.886 103.447 121.243 103.504 121.175 104.05C120.764 105.027 120.515 106.038 119.966 106.954C119.662 107.672 119.026 108.218 119.049 108.979C119.45 108.75 119.757 108.423 120.111 108.133C120.363 108.181 120.613 108.282 120.858 108.43C117.648 114.127 112.786 119.228 106.907 122.183C97.288 127.25 85.2602 128.119 75.0887 124.208C75.3684 123.753 75.6345 123.362 76.2005 123.264C77.875 123.709 79.573 123.877 81.2711 124.177C84.1989 124.218 87.1165 124.184 90.041 124.049C91.8367 123.756 93.6224 123.487 95.3878 123.035C95.8359 122.971 96.0852 122.735 96.4019 122.442C100.991 120.906 105.546 118.638 109.08 115.276C111.314 113.554 113.16 111.455 114.811 109.181C115.909 107.675 117.351 106.536 118.342 104.97C118.955 104.053 119.416 103.059 119.74 102.008L120.013 101.634C120.794 101.058 120.707 99.7038 120.842 98.8346Z" fill="#09366B"/>
<path d="M118.244 99.5219L118.288 99.8386C118.045 102.315 116.438 104.683 114.71 106.398C112.25 108.864 109.026 110.566 105.539 110.923C103.177 111.038 100.849 111.071 98.5716 110.344C98.3223 110.259 98.0662 110.182 97.8102 110.108L97.5474 110.04C97.5946 109.845 97.635 109.649 97.672 109.451C97.3452 109.11 96.8534 109.05 96.8837 108.517C97.3284 108.453 97.7731 108.376 98.2145 108.285C98.6424 108.278 99.0736 108.275 99.5015 108.275C101.264 108.733 103.245 108.635 105.05 108.504C109.37 107.823 113.743 105.573 116.462 102.093C117.149 101.291 117.53 100.29 118.244 99.5219Z" fill="#171D4D"/>
<path d="M91.7693 99.8015C92.2343 100.455 92.0591 101.301 92.1669 102.082C92.3151 102.096 92.4634 102.113 92.6116 102.126C92.7565 102.295 92.8845 102.473 92.9991 102.662C93.154 103.07 93.309 103.474 93.4977 103.868C94.1109 105.105 95.4956 105.849 96.1324 107.022C95.034 107.197 94.0536 106.462 93.3899 105.654C93.0867 105.276 92.6891 105.162 92.2444 105.024C91.5133 103.39 91.328 101.547 91.7693 99.8015Z" fill="#9E1629"/>
<path d="M118.288 99.8386C119.093 100.667 118.541 101.564 118.429 102.51L118.918 102.534C119.043 101.722 118.995 100.991 119.518 100.304C119.571 100.876 119.629 101.446 119.74 102.008C119.416 103.059 118.955 104.053 118.342 104.97C117.351 106.536 115.909 107.675 114.811 109.181C113.16 111.455 111.314 113.554 109.08 115.276C105.546 118.638 100.991 120.906 96.4019 122.442C92.241 123.594 87.9555 124.113 83.6396 123.857C82.6255 123.665 81.5743 123.736 80.5467 123.598C81.2138 123.503 81.8809 123.439 82.548 123.355C82.8276 122.796 82.0291 122.894 81.7192 122.732L81.7394 122.6C82.9354 122.253 84.118 121.886 85.2635 121.394C86.9851 120.582 88.5248 119.531 90.1656 118.588C91.456 117.968 92.2612 116.607 93.3933 115.768C94.8251 115.107 95.9942 113.763 96.8871 112.496C97.5777 111.816 98.2886 111.331 98.5716 110.344C100.849 111.071 103.177 111.038 105.539 110.923C109.026 110.566 112.25 108.864 114.71 106.398C116.438 104.683 118.045 102.315 118.288 99.8386Z" fill="#D92A5B"/>
<path d="M93.5314 100.846C93.0867 103.265 95.1755 105.586 97.0858 106.755C97.8304 107.355 98.6457 107.85 99.5015 108.275C99.0736 108.275 98.6424 108.278 98.2145 108.285C97.4935 107.874 96.7826 107.54 96.1324 107.022C95.4956 105.849 94.1109 105.105 93.4977 103.868C93.309 103.474 93.154 103.07 92.9991 102.662C93.0125 101.911 92.7127 101.264 93.5314 100.846Z" fill="#922649"/>
<path d="M126.512 101.334C127.169 101.223 127.166 101.692 127.563 102.059C127.833 102.123 128.119 102.069 128.304 102.308C128.244 102.601 128.213 102.891 128.217 103.181C128.793 103.595 129.403 103.585 130.076 103.716C129.777 103.976 129.345 104.198 129.157 104.552C129.736 104.653 130.386 104.619 130.932 104.835C131.532 105.384 132.219 105.795 132.863 106.284C133.398 106.331 133.937 106.317 134.473 106.361C134.965 106.6 135.285 107.187 135.706 107.544C136.107 107.022 136.134 106.964 136.815 107.015C136.643 107.288 136.05 107.594 136.262 107.935C137.054 108.292 137.937 107.301 138.429 108.046C138.375 108.329 138.317 108.612 138.257 108.895C138.469 108.844 138.681 108.8 138.894 108.757C139.362 109.151 139.564 109.323 140.211 109.414C140.864 109.464 140.794 110.077 141.063 110.549C141.296 110.65 141.532 110.751 141.767 110.852C141.996 111.816 142.886 112.166 142.822 113.17C142.829 114.174 143.533 114.798 143.674 115.761C142.94 120.114 141.599 124.41 139.716 128.402C139.119 128.021 139.736 127.307 139.743 126.755C139.736 126.155 139.793 125.838 140.096 125.316C139.294 125.06 140.164 124.349 140.221 123.813C140.325 122.799 139.874 121.886 140.083 120.845C139.972 120.707 139.827 120.596 139.648 120.508C139.594 120.923 139.54 121.337 139.49 121.751C139.123 121.539 139.193 120.818 138.826 120.535C138.604 120.161 137.694 120.232 137.637 119.885C137.927 119.818 138.216 119.754 138.506 119.69C138.216 118.995 137.64 119.221 137.027 119.046C137.246 117.958 136.383 118.298 135.706 117.938C134.753 117.281 134.231 116.603 132.957 116.708C133.011 116.411 133.062 116.112 133.102 115.812C132.239 115.731 131.502 116.27 130.595 116.068C130.646 115.761 130.696 115.458 130.75 115.155C129.938 115.043 129.211 115.209 128.513 114.683C127.981 114.252 127.145 114.555 126.67 114.164C126.306 113.45 126.306 112.763 125.599 112.25C125.633 111.967 125.673 111.681 125.717 111.395C125.41 110.872 124.935 109.717 124.258 109.703C124.342 110.583 123.557 110.849 123.358 111.671C123.052 112.368 122.509 113.753 121.586 113.666C123.429 110.02 124.848 106.21 125.764 102.231C125.966 102.453 126.168 102.679 126.367 102.908C126.418 102.382 126.445 101.857 126.512 101.334Z" fill="#23C7D0"/>
<path d="M60.1634 103.417C62.2422 105.559 64.9948 107.086 67.7945 108.063C68.1786 108.255 68.5593 108.443 68.94 108.635C68.3268 109.019 67.6867 109.296 67.2319 109.862C70.5404 111.701 74.2633 111.587 77.9019 111.091C79.4989 110.751 80.6916 112.153 82.1639 112.577C83.4981 112.971 84.9502 113.689 86.3349 113.453C87.6927 114.087 89.485 113.79 90.9607 113.821C89.7108 114.851 88.9864 115.202 87.3659 115.455C85.6948 116.27 83.7676 116.62 81.955 116.987C77.8784 118.045 73.2997 117.392 69.4521 115.768C68.8592 115.549 68.3572 115.293 67.7069 115.481C66.1706 114.771 64.6612 113.908 63.3675 112.81C63.199 111.627 61.9491 111.432 61.5279 110.266C59.8838 109.848 59.5603 108.026 58.3373 106.947C58.8225 106.317 59.4222 105.812 59.9646 105.236C59.8198 104.95 59.6378 104.69 59.466 104.417C59.7221 104.101 59.9343 103.757 60.1634 103.417Z" fill="#0A3772"/>
<path d="M92.2444 105.024C92.6891 105.162 93.0867 105.276 93.3899 105.654C94.0536 106.462 95.034 107.197 96.1324 107.022C96.7826 107.54 97.4935 107.874 98.2145 108.285C97.7731 108.376 97.3284 108.453 96.8837 108.517C96.8534 109.05 97.3452 109.11 97.672 109.451C97.635 109.649 97.5946 109.845 97.5474 110.04C95.1755 109.158 93.2922 107.335 92.2444 105.024Z" fill="#63072A"/>
<path d="M57.7275 107.21C58.8562 108.679 60.0522 110.168 61.4504 111.391C61.1506 111.873 60.8709 112.368 60.5846 112.857C59.6614 111.957 58.9471 110.913 58.1419 109.916C57.8353 109.127 57.303 108.43 56.9088 107.682C57.1851 107.53 57.458 107.372 57.7275 107.21Z" fill="#FA5995"/>
<path d="M68.1752 107.345C69.3915 107.611 70.5943 107.891 71.824 108.09C71.632 108.595 70.2708 108.763 69.7688 108.841C69.4926 108.777 69.2163 108.706 68.94 108.635C68.5593 108.443 68.1786 108.255 67.7945 108.063L68.2932 107.871C68.2527 107.695 68.2157 107.52 68.1752 107.345Z" fill="#1A80AE"/>
<path d="M76.9923 108.1C77.3022 108.191 77.6088 108.278 77.9188 108.359C77.4977 108.733 77.1405 108.932 76.5678 108.989C74.9 109.174 73.3267 109.427 71.6522 109.077C71.8543 108.807 72.0834 108.602 72.3462 108.464C73.7613 107.995 75.5334 108.305 76.9923 108.1Z" fill="#2B78B6"/>
<path d="M55.9486 109.757C56.7033 110.522 56.6763 111.55 57.8016 111.971C58.4081 113.106 59.1021 114.198 59.7928 115.286C59.8534 115.67 59.9343 116.044 60.0354 116.411C59.2099 116.112 59.119 115.094 58.4047 114.787C58.4317 115.175 58.4957 115.562 58.5058 115.95C58.2127 116.216 58.2194 116.327 58.1824 116.701C57.9263 116.657 57.6669 116.617 57.4108 116.58C57.0436 116.799 56.8347 117.277 56.5652 117.604C56.3192 117.574 56.0733 117.537 55.8273 117.496C55.8307 117.87 55.9318 118.109 55.605 118.382C55.2579 118.824 54.8637 118.527 54.3887 118.524C54.3719 119.218 54.3853 119.902 54.2775 120.589C53.5666 119.299 52.9838 117.887 52.5458 116.482C52.6469 115.161 53.6812 114.427 53.7283 113.116C53.8665 113.268 54.0046 113.42 54.1427 113.571C54.4156 113.585 54.7121 113.126 54.8637 112.931C55.2141 112.422 54.6279 111.671 54.7559 111.139C54.985 110.957 55.2108 110.768 55.4264 110.573C55.5106 110.269 55.4769 109.68 55.9486 109.757Z" fill="#FE5F5F"/>
<path d="M124.258 109.703C124.935 109.717 125.41 110.873 125.717 111.395C125.673 111.681 125.633 111.967 125.599 112.25C126.306 112.763 126.306 113.45 126.67 114.164C127.145 114.555 127.981 114.252 128.513 114.683C129.211 115.209 129.938 115.044 130.75 115.155C130.696 115.458 130.646 115.761 130.595 116.068C131.502 116.27 132.239 115.731 133.102 115.812C133.062 116.112 133.011 116.411 132.957 116.708C134.231 116.603 134.753 117.281 135.706 117.938C136.383 118.298 137.246 117.958 137.027 119.046C137.64 119.221 138.216 118.996 138.506 119.69C138.216 119.754 137.927 119.818 137.637 119.885C137.694 120.232 138.604 120.161 138.826 120.535C139.193 120.818 139.123 121.539 139.49 121.751C139.54 121.337 139.594 120.923 139.648 120.508C139.827 120.596 139.972 120.707 140.083 120.845C139.874 121.886 140.325 122.799 140.221 123.813C140.164 124.349 139.294 125.06 140.096 125.316C139.793 125.838 139.736 126.155 139.743 126.755C139.736 127.307 139.119 128.021 139.716 128.402C139.035 129.972 138.193 131.599 137.27 133.038C137.098 132.839 136.919 132.651 136.734 132.465C136.454 132.479 136.175 132.499 135.895 132.529C136.545 131.856 136.693 131.02 137.327 130.35C137.509 129.942 136.919 129.463 136.872 129.039C137.094 129.052 137.317 129.066 137.539 129.083C137.414 128.736 137.162 128.51 136.929 128.234C137 128.001 137.071 127.765 137.145 127.533C136.724 127.092 136.269 126.63 135.828 126.209C135.511 126.273 135.198 126.344 134.881 126.418C134.945 126.121 135.009 125.825 135.07 125.528C134.581 125.569 134.119 125.707 133.648 125.825C133.661 125.629 133.675 125.431 133.681 125.232C132.64 124.625 131.232 124.484 131.043 122.981C130.663 123.032 130.289 123.109 129.915 123.167C130.012 122.617 130.188 122.125 130.073 121.559C129.329 121.492 128.601 121.506 127.86 121.415C127.799 121.017 127.745 120.616 127.705 120.215C127.29 120.555 127.179 121 126.556 120.727C126.333 120.303 126.512 119.821 125.905 119.824C126.081 120.599 125.643 120.983 124.875 120.721C124.784 120.461 124.689 120.205 124.595 119.946C124.049 119.706 123.554 119.663 123.544 118.938C124.285 118.669 123.355 118.002 123.227 117.574C123.55 117.395 123.645 117.2 123.513 116.988C123.089 116.341 122.765 115.704 122.455 114.996C122.294 114.878 122.112 114.798 121.9 114.757C121.889 115.482 121.947 115.63 121.148 115.599C120.923 116.408 120.626 116.819 119.976 117.345L119.524 117.078C120.242 115.957 120.949 114.835 121.586 113.666C122.509 113.753 123.052 112.368 123.358 111.671C123.557 110.849 124.342 110.583 124.258 109.703Z" fill="#15C1CC"/>
<path d="M58.1419 109.916C58.9472 110.913 59.6614 111.957 60.5846 112.857C61.6324 114.033 62.7476 115.273 64.0683 116.142C64.3176 116.711 64.8027 116.95 65.3519 117.163C68.0472 119.471 71.258 120.902 74.5395 122.156C76.4802 122.941 78.4983 123.251 80.5467 123.598C81.5743 123.736 82.6255 123.665 83.6396 123.857C87.9555 124.113 92.241 123.594 96.4019 122.442C96.0852 122.735 95.8359 122.971 95.3878 123.035C93.6224 123.487 91.8367 123.756 90.041 124.049C87.1165 124.184 84.1989 124.218 81.2711 124.177C79.573 123.877 77.875 123.709 76.2005 123.264C75.6345 123.362 75.3683 123.753 75.0887 124.208C68.027 121.566 61.9356 116.789 57.9364 110.377L58.1419 109.916Z" fill="#27357A"/>
<path d="M97.8102 110.108C98.0662 110.182 98.3223 110.259 98.5716 110.344C98.2886 111.331 97.5777 111.816 96.887 112.496C95.9942 113.763 94.8251 115.107 93.3932 115.768C92.2612 116.607 91.456 117.968 90.1656 118.588C88.5248 119.531 86.9851 120.582 85.2635 121.394C84.118 121.886 82.9354 122.253 81.7394 122.6L81.7192 122.732C82.0291 122.894 82.8276 122.796 82.548 123.355C81.8809 123.439 81.2138 123.503 80.5467 123.598C78.4983 123.251 76.4802 122.941 74.5395 122.156C71.258 120.902 68.0472 119.471 65.3519 117.163C65.4058 116.459 64.732 115.97 64.0682 116.142C62.7475 115.273 61.6324 114.033 60.5845 112.857C60.8709 112.368 61.1506 111.873 61.4504 111.391C62.0703 111.903 62.6431 112.439 63.3675 112.81C64.6612 113.908 66.1706 114.771 67.7069 115.481C71.514 117.452 75.6884 118.049 79.9335 117.85C84.7952 117.274 89.7613 115.849 93.9491 113.258C94.9565 112.557 95.9167 112.537 96.3985 111.284C96.9376 110.94 97.5036 110.711 97.8102 110.108Z" fill="#E5376C"/>
<path d="M96.3985 111.284C95.9167 112.537 94.9565 112.557 93.9492 113.258C89.7613 115.849 84.7952 117.274 79.9335 117.85C75.6884 118.049 71.5141 117.452 67.7069 115.481C68.3572 115.293 68.8592 115.549 69.4521 115.768C73.2997 117.392 77.8784 118.045 81.955 116.987C83.7676 116.62 85.6948 116.27 87.3659 115.455C88.9864 115.202 89.7108 114.851 90.9607 113.82C89.485 113.79 87.6927 114.087 86.3349 113.453L86.3012 113.103C89.8186 113.531 93.3326 113.177 96.3985 111.284Z" fill="#1D255B"/>
<path d="M51.3699 112.978C51.8484 114.117 52.0606 115.34 52.5458 116.482C52.9838 117.887 53.5666 119.299 54.2775 120.589C54.6852 121.374 55.0558 122.139 55.6049 122.843L55.6824 123.49C55.0928 123.126 54.8435 122.57 54.5032 121.994C53.0579 119.403 51.973 116.61 51.2318 113.74L51.3699 112.978Z" fill="#42264F"/>
<path d="M58.4047 114.787C59.119 115.094 59.21 116.112 60.0354 116.411C60.7092 117.025 61.2483 117.705 61.7233 118.48C60.7564 118.52 60.3656 119.211 59.5839 119.656C58.4081 120.367 57.303 121.896 55.9453 122.078C55.824 122.328 55.7094 122.584 55.605 122.843C55.0558 122.139 54.6852 121.374 54.2775 120.589C54.3854 119.902 54.3719 119.218 54.3887 118.524C54.8638 118.527 55.258 118.824 55.605 118.382C55.9318 118.109 55.8307 117.87 55.8273 117.496C56.0733 117.537 56.3192 117.574 56.5652 117.604C56.8347 117.277 57.0436 116.799 57.4108 116.58C57.6669 116.617 57.9263 116.657 58.1824 116.701C58.2194 116.327 58.2127 116.216 58.5058 115.95C58.4957 115.562 58.4317 115.175 58.4047 114.787Z" fill="#FB4F56"/>
<path d="M121.9 114.757C122.112 114.798 122.294 114.878 122.455 114.996C122.765 115.704 123.089 116.341 123.513 116.988C123.645 117.2 123.55 117.395 123.227 117.574C123.355 118.002 124.285 118.669 123.544 118.938C123.554 119.663 124.049 119.706 124.595 119.946C124.689 120.205 124.784 120.461 124.875 120.721C125.643 120.983 126.081 120.599 125.905 119.824C126.512 119.821 126.333 120.303 126.556 120.727C127.179 121 127.29 120.555 127.705 120.215C127.745 120.616 127.799 121.017 127.86 121.415C128.601 121.506 129.329 121.492 130.073 121.559C130.188 122.125 130.012 122.617 129.915 123.167C130.289 123.109 130.663 123.032 131.043 122.981C131.232 124.484 132.64 124.625 133.681 125.232C133.675 125.431 133.661 125.629 133.648 125.825C134.119 125.707 134.581 125.569 135.07 125.528C135.009 125.825 134.945 126.121 134.881 126.418C135.198 126.344 135.511 126.273 135.828 126.209C136.269 126.63 136.724 127.092 137.145 127.533C137.071 127.765 137 128.001 136.929 128.234C137.162 128.51 137.414 128.736 137.539 129.083C137.317 129.066 137.094 129.052 136.872 129.039C136.919 129.463 137.509 129.942 137.327 130.35C136.693 131.02 136.545 131.856 135.895 132.529C136.175 132.499 136.454 132.479 136.734 132.465C136.919 132.651 137.098 132.839 137.27 133.038C137.111 133.311 136.966 133.587 136.828 133.874C136.309 134.612 135.851 135.386 135.312 136.111C130.511 143.314 123.652 149.223 116.027 153.277L116.256 152.734C117.179 152.074 118.281 151.552 119.12 150.783C118.965 150.43 118.702 150.305 118.335 150.409C117.152 150.645 115.98 150.942 114.828 151.295C110.987 152.269 107.106 152.33 103.17 152.074C102.274 152.01 101.466 151.777 100.563 151.865C99.6363 151.831 98.7805 151.629 97.9079 151.339C92.4364 149.901 87.3322 147.384 83.2016 143.476C80.9712 141.491 79.1923 139.136 77.6156 136.613C77.3326 136.198 77.2618 135.733 77.1742 135.252C78.1647 135.231 79.1856 135.42 80.1626 135.585C80.732 136.326 82.1167 135.996 82.9624 136.094C84.5021 135.993 86.3315 136.262 87.7735 135.683C88.7607 135.393 89.859 135.501 90.8765 135.386C92.0793 135.157 93.2585 134.975 94.4478 134.665L94.6971 134.608C96.5063 134.689 98.4369 133.81 100.155 133.274C102.234 132.671 104.003 131.606 105.893 130.585C108.096 129.457 110.084 127.829 112.004 126.28C113.12 125.461 113.793 124.285 114.824 123.359C115.353 122.762 116.223 122.27 116.243 121.411C117.371 119.993 118.52 118.622 119.524 117.078L119.976 117.345C120.626 116.819 120.923 116.408 121.148 115.599C121.947 115.63 121.889 115.482 121.9 114.757Z" fill="#07B8CA"/>
<path d="M59.7928 115.286C60.0657 115.498 60.2914 115.741 60.47 116.017C61.1674 117.065 62.1344 117.965 62.9868 118.888C65.0082 121.401 67.9293 123.291 70.5505 125.127C69.5162 125.394 68.903 125.006 68.1281 124.4C66.4064 123.193 64.9813 121.708 63.4045 120.34C62.8453 119.716 62.2759 119.103 61.7233 118.48C61.2483 117.705 60.7092 117.025 60.0354 116.411C59.9343 116.044 59.8535 115.67 59.7928 115.286Z" fill="#E76B6E"/>
<path d="M64.0683 116.142C64.732 115.97 65.4058 116.459 65.3519 117.163C64.8027 116.95 64.3176 116.711 64.0683 116.142Z" fill="#BC4F96"/>
<path d="M61.7233 118.48C62.2759 119.103 62.8453 119.717 63.4045 120.34C62.9632 120.849 63.2934 121.169 63.4349 121.721C63.1215 121.64 62.8149 121.603 62.5083 121.607C62.1815 121.822 62.2658 122.082 62.2186 122.415C61.7469 122.813 61.0158 122.786 60.4296 122.907C59.7052 122.944 59.439 123.625 58.8158 123.948C58.3036 124.218 57.896 124.443 57.5658 124.939C56.7909 124.332 56.4742 123.382 55.605 122.843C55.7094 122.584 55.824 122.328 55.9453 122.078C57.303 121.896 58.4081 120.367 59.5839 119.656C60.3656 119.211 60.7564 118.52 61.7233 118.48Z" fill="#F24050"/>
<path d="M50.3626 119.565C50.7837 119.791 51.1779 120.03 51.6429 120.158C51.8821 120.448 52.1145 120.744 52.3504 121.041C52.347 121.832 52.8827 122.23 53.3476 122.793C54.1664 123.658 55.039 124.477 55.9082 125.289C56.2721 125.643 56.5753 125.794 57.0807 125.889C57.5018 125.966 57.7309 126.202 58.0409 126.472C58.1386 127.29 58.7787 127.459 59.3312 127.947C60.7665 129.153 62.3298 130.198 64.011 131.033C66.1403 132.418 68.7413 133.193 71.1165 134.072C72.5619 134.413 74.2127 135.076 75.6985 134.824L75.9141 134.905C76.0557 135.349 76.3892 135.481 76.9148 135.302L77.1742 135.252C77.2618 135.733 77.3326 136.198 77.6156 136.613C79.1923 139.136 80.9712 141.491 83.2016 143.476C87.3322 147.384 92.4364 149.901 97.9079 151.339C98.7805 151.629 99.6363 151.831 100.563 151.865C99.7643 152.313 98.7603 152.215 97.8978 152.552L97.881 152.731C98.1707 152.798 98.4604 152.865 98.7502 152.929C98.228 153.533 97.5541 153.138 96.941 153.549C96.9477 153.738 96.9544 153.923 96.9578 154.112C96.385 154.163 95.8022 154.163 95.2294 154.21C95.2496 154.412 95.2699 154.614 95.2901 154.816C94.7376 154.911 94.6567 154.702 94.276 154.375C93.8784 154.338 93.4775 154.338 93.0766 154.311C93.0732 154.951 93.5752 154.742 94.0267 154.954C93.1136 156.174 92.0995 155.989 90.7822 156.285C90.4924 157.124 91.6413 156.605 91.6481 157.168C91.2505 157.215 90.863 157.198 90.4891 157.121C90.4116 156.824 90.3374 156.528 90.2599 156.231C89.9635 156.568 89.8018 157.033 89.5726 157.424C89.2526 157.582 88.8483 157.38 88.4979 157.383C88.2115 157.697 87.8813 157.815 87.504 157.983C87.5107 158.142 87.5175 158.303 87.5242 158.462C86.9548 158.556 86.3753 158.65 85.7958 158.687C85.6308 158.536 85.4724 158.377 85.3174 158.212C84.2494 159.119 82.7299 159.408 81.4766 158.718C80.9443 158.472 80.54 158.977 80.1188 158.371C79.4922 158.654 78.906 158.876 78.2153 158.97C68.8929 157.026 60.1196 152.828 52.9568 146.528C53.4723 146.292 54.355 146.097 54.6043 145.531C54.072 145.332 53.5835 145.325 53.2297 144.827C53.0579 144.395 53.2162 143.968 52.913 143.563C52.5559 143.533 52.2998 143.647 52.0606 143.297C51.9865 142.943 52.2021 142.553 52.2662 142.199C51.5586 142.229 51.2386 142.121 50.6961 141.643C51.4205 140.743 51.1409 139.84 51.1206 138.776C49.7764 138.594 49.9313 137.054 49.7663 136.033C49.5338 135.794 49.2541 135.605 48.9981 135.396C49.2845 135.329 49.5742 135.255 49.8606 135.177C50.2278 134.675 49.0385 134.43 48.7656 134.187C48.5904 133.554 48.9442 133.247 49.1059 132.698C48.9678 132.469 48.8229 132.24 48.6747 132.017C48.9442 131.963 49.2103 131.906 49.4765 131.845C49.0486 130.74 49.5641 130.077 49.7932 129.032C49.6382 128.897 49.4832 128.763 49.3283 128.631C49.7393 128.584 50.1503 128.53 50.5614 128.463C50.5883 128.207 50.6052 127.951 50.6052 127.695C49.9347 127.816 49.5944 127.664 49.6079 126.91C49.81 126.711 49.9852 126.495 50.1335 126.266C50.1503 125.461 49.7932 125.279 50.4502 124.635C50.211 124.477 49.992 124.305 49.7865 124.117C49.6079 122.948 49.7898 121.906 49.0452 120.889C49.4428 120.417 49.8943 119.966 50.3626 119.565Z" fill="#17E1E3"/>
<path d="M63.4045 120.34C64.9813 121.708 66.4064 123.193 68.1281 124.4C67.5991 124.817 67.6092 124.814 67.616 125.454C67.178 125.828 66.7602 125.575 66.2515 125.69C65.9179 125.862 65.7259 126.077 65.3249 125.983C64.8162 125.872 64.604 126.549 64.1289 126.59C63.3473 126.63 62.7172 127.034 61.9491 127.102C61.4639 127.213 61.2618 127.866 61.0124 128.244C59.6715 127.294 58.4283 126.371 57.5658 124.939C57.896 124.443 58.3037 124.218 58.8158 123.948C59.4391 123.625 59.7052 122.944 60.4296 122.907C61.0158 122.786 61.7469 122.813 62.2186 122.415C62.2658 122.082 62.1815 121.822 62.5083 121.607C62.8149 121.603 63.1215 121.64 63.4349 121.721C63.2934 121.169 62.9632 120.849 63.4045 120.34Z" fill="#E4334A"/>
<path d="M52.3504 121.041C53.5094 122.068 54.4696 123.359 55.6993 124.275L55.8981 124.467C56.3159 124.871 56.7067 125.296 57.1548 125.666L57.0807 125.889C56.5753 125.794 56.2721 125.643 55.9082 125.289C55.039 124.477 54.1664 123.658 53.3477 122.793C52.8827 122.23 52.347 121.832 52.3504 121.041Z" fill="#3ED5E0"/>
<path d="M116.243 121.411C116.223 122.27 115.353 122.762 114.824 123.359C113.793 124.285 113.12 125.461 112.004 126.28C110.084 127.829 108.096 129.457 105.893 130.585C104.003 131.606 102.234 132.671 100.155 133.274C98.4369 133.81 96.5063 134.689 94.6971 134.608C95.9066 133.995 97.3318 133.948 98.5918 133.409C101.846 132.415 104.831 130.828 107.709 129.039C108.086 128.81 108.372 128.584 108.608 128.203C110.124 127.361 111.199 126.179 112.496 125.1L112.358 124.689C113.864 123.706 115.003 122.712 116.243 121.411Z" fill="#4194B5"/>
<path d="M55.605 122.843C56.4742 123.382 56.7909 124.332 57.5658 124.939C58.4283 126.371 59.6715 127.294 61.0124 128.244C62.2725 129.241 63.4854 129.969 64.9745 130.585C65.9718 131.37 67.087 131.657 68.2258 132.152C69.8025 132.769 71.413 133.328 73.047 133.769C74.7181 134.079 76.2915 134.463 77.9121 134.982C81.3351 135.423 84.9738 135.316 88.353 135.289C90.0207 135.13 91.648 134.76 93.3057 134.544C93.6864 134.595 94.0671 134.635 94.4478 134.665C93.2585 134.975 92.0793 135.157 90.8765 135.386C89.859 135.501 88.7607 135.393 87.7735 135.683C85.2399 135.626 82.6996 135.696 80.1626 135.585C79.1856 135.42 78.1647 135.231 77.1742 135.252L76.9148 135.302C76.8204 134.965 76.4869 134.834 75.9141 134.905L75.6985 134.824C70.1024 133.557 64.7859 131.616 60.1904 128.099C59.5165 127.499 58.7888 126.97 58.0409 126.472C57.7309 126.202 57.5018 125.966 57.0807 125.889L57.1548 125.666L57.303 125.434C56.8448 124.757 56.3799 123.945 55.6825 123.49L55.605 122.843Z" fill="#7E4E6F"/>
<path d="M55.6825 123.49C56.3799 123.945 56.8448 124.757 57.303 125.434L57.1548 125.666C56.7067 125.296 56.3159 124.871 55.8981 124.467L55.6993 124.275L55.6825 123.49Z" fill="#243154"/>
<path d="M68.1281 124.4C68.903 125.006 69.5162 125.394 70.5505 125.127C71.7263 125.902 72.9459 126.6 74.1925 127.26C74.0342 127.402 73.8826 127.543 73.731 127.688C73.6804 128.213 74.3408 128.709 74.1555 129.187C73.0942 129.349 72.0936 129.1 71.0491 129.436C69.9912 129.851 69.1489 129.012 68.2123 129.629C67.7945 129.864 67.1207 129.436 66.676 129.79C66.1302 130.131 65.6113 130.444 64.9746 130.585C63.4854 129.969 62.2725 129.241 61.0125 128.244C61.2618 127.866 61.4639 127.213 61.9491 127.102C62.7172 127.034 63.3473 126.63 64.1289 126.59C64.604 126.549 64.8162 125.872 65.3249 125.983C65.7259 126.077 65.9179 125.862 66.2515 125.69C66.7602 125.575 67.178 125.828 67.616 125.454C67.6092 124.814 67.5991 124.817 68.1281 124.4Z" fill="#D32643"/>
<path d="M112.358 124.689L112.496 125.1C111.199 126.179 110.124 127.361 108.608 128.203C108.153 128.318 107.773 128.459 107.389 128.736C103.548 131.219 99.2859 133.082 94.8016 134.032C94.2793 134.143 93.7976 134.349 93.3057 134.544C91.648 134.76 90.0207 135.13 88.353 135.289C84.9738 135.316 81.3351 135.423 77.9121 134.982C76.2915 134.463 74.7181 134.079 73.047 133.769C71.413 133.328 69.8025 132.769 68.2258 132.152C67.087 131.657 65.9718 131.37 64.9745 130.585C65.6113 130.444 66.1302 130.131 66.676 129.79C67.1207 129.436 67.7945 129.864 68.2123 129.629C69.1489 129.012 69.9912 129.851 71.0491 129.436C72.0936 129.1 73.0942 129.349 74.1555 129.187C74.3408 128.709 73.6804 128.213 73.731 127.688C73.8826 127.543 74.0342 127.402 74.1925 127.26C78.2995 129.238 82.8377 130.451 87.3457 131.02C93.0597 131.505 99.1781 131.023 104.552 128.914C107.382 127.93 109.916 126.401 112.358 124.689Z" fill="#C41637"/>
<path d="M58.0409 126.472C58.7888 126.97 59.5165 127.499 60.1904 128.099C64.7859 131.616 70.1024 133.557 75.6985 134.824C74.2127 135.076 72.5619 134.413 71.1165 134.072C68.7413 133.193 66.1403 132.418 64.011 131.033C62.3298 130.198 60.7665 129.153 59.3312 127.947C58.7787 127.459 58.1386 127.29 58.0409 126.472Z" fill="#5CC9DD"/>
<path d="M108.608 128.203C108.372 128.584 108.086 128.81 107.709 129.039C104.831 130.828 101.846 132.415 98.5918 133.409C97.3318 133.948 95.9066 133.995 94.6971 134.608L94.4478 134.665C94.0671 134.635 93.6864 134.595 93.3057 134.544C93.7976 134.349 94.2793 134.143 94.8016 134.032C99.2859 133.082 103.548 131.219 107.389 128.736C107.773 128.459 108.153 128.318 108.608 128.203Z" fill="#713054"/>
<path d="M75.9142 134.905C76.4869 134.834 76.8205 134.965 76.9148 135.302C76.3892 135.481 76.0557 135.349 75.9142 134.905Z" fill="#5ED6E1"/>
<path d="M80.1626 135.585C82.6996 135.696 85.2399 135.626 87.7735 135.683C86.3315 136.262 84.5021 135.993 82.9624 136.094C82.1167 135.996 80.732 136.326 80.1626 135.585Z" fill="#52A6C1"/>
<path d="M118.335 150.409C118.702 150.305 118.965 150.43 119.12 150.783C118.281 151.552 117.179 152.074 116.256 152.734L116.027 153.277C113.099 154.894 109.983 156.225 106.809 157.282C102.072 158.677 97.0185 159.84 92.0591 159.836C87.4063 159.91 82.7973 159.89 78.2153 158.97C78.906 158.876 79.4922 158.654 80.1188 158.371C80.54 158.977 80.9443 158.472 81.4766 158.718C82.7299 159.408 84.2494 159.119 85.3174 158.212C85.4724 158.377 85.6308 158.536 85.7959 158.687C86.3753 158.65 86.9548 158.556 87.5242 158.462C87.5175 158.303 87.5107 158.142 87.504 157.983C87.8814 157.815 88.2115 157.697 88.4979 157.383C88.8483 157.38 89.2526 157.582 89.5727 157.424C89.8018 157.033 89.9635 156.568 90.26 156.231C90.3374 156.528 90.4116 156.824 90.4891 157.121C90.863 157.198 91.2505 157.215 91.6481 157.168C91.6413 156.605 90.4924 157.124 90.7822 156.285C92.0995 155.989 93.1136 156.174 94.0267 154.954C93.5752 154.742 93.0732 154.951 93.0766 154.311C93.4775 154.338 93.8784 154.338 94.276 154.375C94.6567 154.702 94.7376 154.911 95.2901 154.816C95.2699 154.614 95.2496 154.412 95.2294 154.21C95.8022 154.163 96.3851 154.163 96.9578 154.112C96.9544 153.923 96.9477 153.738 96.941 153.549C97.5541 153.138 98.228 153.533 98.7502 152.929C98.4604 152.865 98.1707 152.798 97.881 152.731L97.8978 152.552C98.7603 152.215 99.7643 152.313 100.563 151.865C101.466 151.777 102.274 152.01 103.171 152.074C107.106 152.33 110.987 152.269 114.828 151.295C115.98 150.942 117.152 150.645 118.335 150.409Z" fill="#18D3DB"/>
</svg>
